<?xml version="1.0" encoding="utf-8"?>
<!-- Generator: Adobe Illustrator 24.1.2, SVG Export Plug-In . SVG Version: 6.00 Build 0)  -->
<svg version="1.1" id="Capa_3" xmlns="http://www.w3.org/2000/svg" xmlns:xlink="http://www.w3.org/1999/xlink" x="0px" y="0px"
	 viewBox="0 0 100.7 468.2" style="enable-background:new 0 0 100.7 468.2;" xml:space="preserve">
<style type="text/css">
	.st0{opacity:0.4;fill:url(#SVGID_1_);}
	.st1{opacity:0.59;fill:url(#SVGID_2_);}
	.st2{fill:url(#SVGID_3_);}
</style>
<g id="Capa_2">
</g>
<linearGradient id="SVGID_1_" gradientUnits="userSpaceOnUse" x1="97.8563" y1="241.3233" x2="-11.0979" y2="243.3662">
	<stop  offset="0" style="stop-color:#8AE1FB"/>
	<stop  offset="0.1764" style="stop-color:#BAEEFF"/>
	<stop  offset="0.5436" style="stop-color:#8AE1FB"/>
	<stop  offset="1" style="stop-color:#93E3FA"/>
</linearGradient>
<path class="st0" d="M91.4,433.9c0,45.9-82.7,45.9-82.7,0l0-417h82.7L91.4,433.9z"/>
<linearGradient id="SVGID_2_" gradientUnits="userSpaceOnUse" x1="50.633" y1="-0.8655" x2="50.0894" y2="16.8018">
	<stop  offset="0" style="stop-color:#8AE1FB"/>
	<stop  offset="0.1764" style="stop-color:#BAEEFF"/>
	<stop  offset="0.5436" style="stop-color:#8AE1FB"/>
	<stop  offset="1" style="stop-color:#81D9FA"/>
</linearGradient>
<path class="st1" d="M93.2,16.9H7.5C3.3,16.9,0,13.5,0,9.4l0-1.9C0,3.3,3.3,0,7.5,0l85.8,0c4.1,0,7.5,3.3,7.5,7.5v1.9
	C100.7,13.5,97.4,16.9,93.2,16.9z"/>
<linearGradient id="SVGID_3_" gradientUnits="userSpaceOnUse" x1="98.7469" y1="288.823" x2="-10.2073" y2="290.8659">
	<stop  offset="0" style="stop-color:#8DCDFB"/>
	<stop  offset="0.1764" style="stop-color:#BCE2FF"/>
	<stop  offset="0.5436" style="stop-color:#8DCDFB"/>
	<stop  offset="1" style="stop-color:#89BEED"/>
</linearGradient>
<path class="st2" d="M85.5,117.6c-4.4,0-8.9-0.2-13.2-0.8c-0.2,0-0.5-0.1-0.7-0.1c-0.1,0-0.2,0-0.3,0c-0.2,0-0.5-0.1-0.7-0.1
	c-6.4-1-12.6-2.8-19-4c-1.7-0.3-3.3-0.6-5-0.8c0,0-0.1,0-0.1,0c-1-0.1-2-0.2-3.1-0.3c-0.1,0-0.2,0-0.3,0c-1-0.1-2-0.1-3-0.1
	c0,0-0.1,0-0.1,0c-2.1,0-4.3,0.1-6.4,0.3c-2.7,0.3-5.4,0.6-8.1,0.9c-0.7,0.1-1.4,0.2-2.1,0.2c-0.1,0-0.2,0-0.4,0
	c-1.5,0.2-3,0.3-4.4,0.4c-2,0.2-3.9,0.3-5.9,0.3c-0.1,0-0.3,0-0.4,0c-0.4,0-0.7,0-1.1,0c-0.8,0-1.6,0-2.4,0v320.2
	c0,45.9,82.7,45.9,82.7,0l0-316.5C89.4,117.5,87.5,117.6,85.5,117.6z"/>
</svg>
