<?xml version="1.0" encoding="utf-8"?>
<!-- Generator: Adobe Illustrator 24.1.2, SVG Export Plug-In . SVG Version: 6.00 Build 0)  -->
<svg version="1.1" id="Capa_3" xmlns="http://www.w3.org/2000/svg" xmlns:xlink="http://www.w3.org/1999/xlink" x="0px" y="0px"
	 viewBox="0 0 100.7 468.3" style="enable-background:new 0 0 100.7 468.3;" xml:space="preserve">
<style type="text/css">
	.st0{opacity:0.4;fill:url(#SVGID_1_);}
	.st1{opacity:0.59;fill:url(#SVGID_2_);}
	.st2{fill:url(#SVGID_3_);}
	.st3{opacity:0.5;fill:url(#SVGID_4_);}
	.st4{opacity:0.5;fill:url(#SVGID_5_);}
	.st5{opacity:0.5;fill:url(#SVGID_6_);}
	.st6{opacity:0.5;fill:url(#SVGID_7_);}
	.st7{opacity:0.5;fill:url(#SVGID_8_);}
	.st8{opacity:0.5;fill:url(#SVGID_9_);}
	.st9{fill:url(#SVGID_10_);}
	.st10{opacity:0.23;fill:#FFFFFF;}
	.st11{opacity:0.5;fill:url(#SVGID_11_);}
	.st12{opacity:0.5;fill:url(#SVGID_12_);}
	.st13{opacity:0.5;fill:url(#SVGID_13_);}
	.st14{opacity:0.5;fill:url(#SVGID_14_);}
	.st15{opacity:0.5;fill:url(#SVGID_15_);}
	.st16{opacity:0.5;fill:url(#SVGID_16_);}
	.st17{fill:url(#SVGID_17_);}
	.st18{opacity:0.5;fill:url(#SVGID_18_);}
	.st19{opacity:0.5;fill:url(#SVGID_19_);}
	.st20{opacity:0.5;fill:url(#SVGID_20_);}
	.st21{opacity:0.5;fill:url(#SVGID_21_);}
	.st22{opacity:0.5;fill:url(#SVGID_22_);}
	.st23{opacity:0.5;fill:url(#SVGID_23_);}
	.st24{fill:url(#SVGID_24_);}
	.st25{opacity:0.5;fill:url(#SVGID_25_);}
	.st26{opacity:0.5;fill:url(#SVGID_26_);}
	.st27{opacity:0.5;fill:url(#SVGID_27_);}
	.st28{opacity:0.5;fill:url(#SVGID_28_);}
	.st29{opacity:0.5;fill:url(#SVGID_29_);}
	.st30{opacity:0.5;fill:url(#SVGID_30_);}
	.st31{fill:url(#SVGID_31_);}
	.st32{opacity:0.5;fill:url(#SVGID_32_);}
	.st33{opacity:0.5;fill:url(#SVGID_33_);}
	.st34{opacity:0.5;fill:url(#SVGID_34_);}
	.st35{opacity:0.5;fill:url(#SVGID_35_);}
	.st36{opacity:0.5;fill:url(#SVGID_36_);}
	.st37{opacity:0.5;fill:url(#SVGID_37_);}
	.st38{fill:url(#SVGID_38_);}
	.st39{opacity:0.5;fill:url(#SVGID_39_);}
	.st40{opacity:0.5;fill:url(#SVGID_40_);}
	.st41{opacity:0.5;fill:url(#SVGID_41_);}
	.st42{opacity:0.5;fill:url(#SVGID_42_);}
	.st43{opacity:0.5;fill:url(#SVGID_43_);}
	.st44{opacity:0.5;fill:url(#SVGID_44_);}
	.st45{fill:url(#SVGID_45_);}
	.st46{opacity:0.5;fill:url(#SVGID_46_);}
	.st47{opacity:0.5;fill:url(#SVGID_47_);}
	.st48{opacity:0.5;fill:url(#SVGID_48_);}
	.st49{opacity:0.5;fill:url(#SVGID_49_);}
	.st50{opacity:0.5;fill:url(#SVGID_50_);}
	.st51{opacity:0.5;fill:url(#SVGID_51_);}
	.st52{fill:url(#SVGID_52_);}
	.st53{opacity:0.5;fill:url(#SVGID_53_);}
	.st54{opacity:0.5;fill:url(#SVGID_54_);}
	.st55{opacity:0.5;fill:url(#SVGID_55_);}
	.st56{opacity:0.5;fill:url(#SVGID_56_);}
	.st57{opacity:0.5;fill:url(#SVGID_57_);}
	.st58{opacity:0.5;fill:url(#SVGID_58_);}
	.st59{fill:url(#SVGID_59_);}
	.st60{opacity:0.5;fill:url(#SVGID_60_);}
	.st61{opacity:0.5;fill:url(#SVGID_61_);}
	.st62{opacity:0.5;fill:url(#SVGID_62_);}
	.st63{opacity:0.5;fill:url(#SVGID_63_);}
	.st64{opacity:0.5;fill:url(#SVGID_64_);}
	.st65{opacity:0.5;fill:url(#SVGID_65_);}
	.st66{fill:url(#SVGID_66_);}
	.st67{opacity:0.5;fill:url(#SVGID_67_);}
	.st68{opacity:0.5;fill:url(#SVGID_68_);}
	.st69{opacity:0.5;fill:url(#SVGID_69_);}
	.st70{opacity:0.5;fill:url(#SVGID_70_);}
	.st71{opacity:0.5;fill:url(#SVGID_71_);}
	.st72{opacity:0.5;fill:url(#SVGID_72_);}
	.st73{fill:url(#SVGID_73_);}
</style>
<g id="Capa_2">
</g>
<linearGradient id="SVGID_1_" gradientUnits="userSpaceOnUse" x1="97.8563" y1="241.3233" x2="-11.0979" y2="243.3662">
	<stop  offset="0" style="stop-color:#8AE1FB"/>
	<stop  offset="0.1764" style="stop-color:#BAEEFF"/>
	<stop  offset="0.5436" style="stop-color:#8AE1FB"/>
	<stop  offset="1" style="stop-color:#93E3FA"/>
</linearGradient>
<path class="st0" d="M91.4,433.9c0,45.9-82.7,45.9-82.7,0l0-417h82.7L91.4,433.9z"/>
<linearGradient id="SVGID_2_" gradientUnits="userSpaceOnUse" x1="50.633" y1="-0.8655" x2="50.0894" y2="16.8018">
	<stop  offset="0" style="stop-color:#8AE1FB"/>
	<stop  offset="0.1764" style="stop-color:#BAEEFF"/>
	<stop  offset="0.5436" style="stop-color:#8AE1FB"/>
	<stop  offset="1" style="stop-color:#81D9FA"/>
</linearGradient>
<path class="st1" d="M93.2,16.9H7.5C3.3,16.9,0,13.5,0,9.4l0-1.9C0,3.3,3.3,0,7.5,0l85.8,0c4.1,0,7.5,3.3,7.5,7.5v1.9
	C100.7,13.5,97.4,16.9,93.2,16.9z"/>
<linearGradient id="SVGID_3_" gradientUnits="userSpaceOnUse" x1="98.7469" y1="288.823" x2="-10.2073" y2="290.8659">
	<stop  offset="0" style="stop-color:#55A8FB"/>
	<stop  offset="0.1764" style="stop-color:#82BFFF"/>
	<stop  offset="0.5436" style="stop-color:#55A8FB"/>
	<stop  offset="1" style="stop-color:#5499ED"/>
</linearGradient>
<path class="st2" d="M85.5,117.6c-4.4,0-8.9-0.2-13.2-0.8c-0.2,0-0.5-0.1-0.7-0.1c-0.1,0-0.2,0-0.3,0c-0.2,0-0.5-0.1-0.7-0.1
	c-6.4-1-12.6-2.8-19-4c-1.7-0.3-3.3-0.6-5-0.8c0,0-0.1,0-0.1,0c-1-0.1-2-0.2-3.1-0.3c-0.1,0-0.2,0-0.3,0c-1-0.1-2-0.1-3-0.1
	c0,0-0.1,0-0.1,0c-2.1,0-4.3,0.1-6.4,0.3c-2.7,0.3-5.4,0.6-8.1,0.9c-0.7,0.1-1.4,0.2-2.1,0.2c-0.1,0-0.2,0-0.4,0
	c-1.5,0.2-3,0.3-4.4,0.4c-2,0.2-3.9,0.3-5.9,0.3c-0.1,0-0.3,0-0.4,0c-0.4,0-0.7,0-1.1,0c-0.8,0-1.6,0-2.4,0v320.2
	c0,45.9,82.7,45.9,82.7,0l0-316.5C89.4,117.5,87.5,117.6,85.5,117.6z"/>
<g>
	
		<linearGradient id="SVGID_4_" gradientUnits="userSpaceOnUse" x1="62.2747" y1="439.8698" x2="54.0635" y2="455.3924" gradientTransform="matrix(0.9948 -0.1014 0.1014 0.9948 -46.6957 10.9365)">
		<stop  offset="0.1764" style="stop-color:#6191FF"/>
		<stop  offset="0.5436" style="stop-color:#3574FB"/>
		<stop  offset="1" style="stop-color:#3667ED"/>
	</linearGradient>
	<polygon class="st3" points="59.8,443.1 51.5,444 48,451.6 52.9,458.5 61.3,457.6 64.8,449.9 	"/>
	
		<linearGradient id="SVGID_5_" gradientUnits="userSpaceOnUse" x1="62.5727" y1="440.0275" x2="54.3615" y2="455.5501" gradientTransform="matrix(0.9948 -0.1014 0.1014 0.9948 -46.6957 10.9365)">
		<stop  offset="0.1764" style="stop-color:#6191FF"/>
		<stop  offset="0.5436" style="stop-color:#3574FB"/>
		<stop  offset="1" style="stop-color:#3667ED"/>
	</linearGradient>
	<path class="st4" d="M59.5,444.3c0.1-0.4,0.3-0.8,0.4-1.2c0,0,0,0,0,0l0,0l-0.1,0c-0.1,0.3-0.2,0.6-0.4,0.8
		c-0.1,0.3-0.2,0.5-0.3,0.8c0,0.1-0.1,0.2-0.1,0.3c0,0,0.1,0.1,0.1,0.1c0,0,0.1,0.1,0.1,0.1C59.3,444.9,59.4,444.6,59.5,444.3z"/>
	
		<linearGradient id="SVGID_6_" gradientUnits="userSpaceOnUse" x1="56.8113" y1="436.9798" x2="48.6001" y2="452.5024" gradientTransform="matrix(0.9948 -0.1014 0.1014 0.9948 -46.6957 10.9365)">
		<stop  offset="0.1764" style="stop-color:#6191FF"/>
		<stop  offset="0.5436" style="stop-color:#3574FB"/>
		<stop  offset="1" style="stop-color:#3667ED"/>
	</linearGradient>
	<path class="st5" d="M52.8,445.7C52.8,445.6,52.8,445.6,52.8,445.7c0-0.1-0.1-0.2-0.1-0.2c0,0-0.1-0.1-0.1-0.1
		c-0.1-0.1-0.1-0.1-0.2-0.2c0,0-0.1-0.1-0.1-0.1c-0.1-0.1-0.1-0.1-0.2-0.2c-0.3-0.3-0.5-0.5-0.8-0.9l0,0c0,0,0.1,0.1,0.1,0.1
		c0.3,0.4,0.6,0.8,0.9,1.1c0.1,0.1,0.1,0.2,0.2,0.3C52.6,445.6,52.7,445.7,52.8,445.7c-0.1,0.1,0,0.1,0,0.1c0,0,0,0,0,0
		C52.8,445.8,52.8,445.8,52.8,445.7C52.8,445.7,52.8,445.7,52.8,445.7C52.8,445.7,52.8,445.7,52.8,445.7z"/>
	
		<linearGradient id="SVGID_7_" gradientUnits="userSpaceOnUse" x1="57.1334" y1="437.1502" x2="48.9222" y2="452.6728" gradientTransform="matrix(0.9948 -0.1014 0.1014 0.9948 -46.6957 10.9365)">
		<stop  offset="0.1764" style="stop-color:#6191FF"/>
		<stop  offset="0.5436" style="stop-color:#3574FB"/>
		<stop  offset="1" style="stop-color:#3667ED"/>
	</linearGradient>
	<path class="st6" d="M51.7,451C51.7,451,51.7,451,51.7,451c0.1-0.1,0.1-0.1,0.1-0.2c0,0,0,0,0,0c0,0,0,0,0,0c0,0,0,0,0,0
		c0,0,0,0,0,0c-0.1,0-0.1,0-0.2,0c-0.3,0.1-0.6,0.1-0.8,0.2c-0.3,0.1-0.6,0.1-0.8,0.2c-0.3,0.1-0.6,0.1-0.8,0.2
		c-0.1,0-0.3,0.1-0.4,0.1c-0.1,0-0.1,0-0.2,0c-0.1,0-0.1,0-0.2,0c-0.1,0-0.1,0-0.2,0l0,0.1l3.4-0.3c0,0,0-0.1,0.1-0.1
		c0-0.1,0.1-0.1,0.1-0.2C51.6,451.1,51.6,451.1,51.7,451C51.6,451,51.7,451,51.7,451z"/>
	
		<linearGradient id="SVGID_8_" gradientUnits="userSpaceOnUse" x1="62.0254" y1="439.738" x2="53.8142" y2="455.2606" gradientTransform="matrix(0.9948 -0.1014 0.1014 0.9948 -46.6957 10.9365)">
		<stop  offset="0.1764" style="stop-color:#6191FF"/>
		<stop  offset="0.5436" style="stop-color:#3574FB"/>
		<stop  offset="1" style="stop-color:#3667ED"/>
	</linearGradient>
	<path class="st7" d="M53.8,456.5c0-0.1,0-0.1,0-0.2c0,0,0,0,0,0c0,0,0-0.1,0-0.1c0,0,0,0,0,0c0,0,0,0,0,0c0,0,0,0,0,0
		c0,0.1-0.1,0.1-0.1,0.2c0,0-0.1,0.1-0.1,0.1c-0.1,0.2-0.2,0.4-0.3,0.6c0,0,0,0,0,0c-0.1,0.2-0.2,0.5-0.3,0.7
		c-0.1,0.2-0.1,0.4-0.2,0.6l0.1,0.1l0.3,0c0,0,0-0.1,0-0.1c0.1-0.2,0.2-0.4,0.3-0.7c0.1-0.2,0.2-0.4,0.2-0.7c0-0.1,0-0.2,0.1-0.3
		c0,0,0,0,0-0.1C53.8,456.6,53.8,456.6,53.8,456.5z"/>
	
		<linearGradient id="SVGID_9_" gradientUnits="userSpaceOnUse" x1="67.6788" y1="442.7286" x2="59.4676" y2="458.2512" gradientTransform="matrix(0.9948 -0.1014 0.1014 0.9948 -46.6957 10.9365)">
		<stop  offset="0.1764" style="stop-color:#6191FF"/>
		<stop  offset="0.5436" style="stop-color:#3574FB"/>
		<stop  offset="1" style="stop-color:#3667ED"/>
	</linearGradient>
	<path class="st8" d="M61,457.1c-0.1-0.1-0.3-0.3-0.4-0.4c0,0-0.1-0.1-0.1-0.1c0,0,0,0,0-0.1c0,0-0.1-0.1-0.1-0.1
		c0,0-0.1-0.1-0.1-0.1c-0.1-0.1-0.1-0.2-0.2-0.2c0,0,0,0,0-0.1c0,0,0,0,0,0c0,0,0,0,0,0c0,0,0,0,0,0c0,0,0,0,0,0c0,0,0,0,0,0
		c0,0,0,0-0.1,0c0,0,0,0,0,0c0,0,0,0,0,0c0,0,0,0,0,0c0,0,0,0,0,0.1c0,0.1,0.1,0.1,0.1,0.2c0.1,0.1,0.1,0.2,0.2,0.2
		c0.1,0.2,0.3,0.4,0.4,0.5c0.1,0.2,0.3,0.3,0.4,0.5c0.1,0.1,0.1,0.2,0.2,0.2l0.2,0l0.1-0.1C61.2,457.4,61.1,457.2,61,457.1z"/>
	
		<linearGradient id="SVGID_10_" gradientUnits="userSpaceOnUse" x1="61.5316" y1="441.2746" x2="54.7329" y2="454.127" gradientTransform="matrix(0.9948 -0.1014 0.1014 0.9948 -46.6957 10.9365)">
		<stop  offset="0.1764" style="stop-color:#6191FF"/>
		<stop  offset="0.5436" style="stop-color:#3574FB"/>
		<stop  offset="1" style="stop-color:#3667ED"/>
	</linearGradient>
	<polygon class="st9" points="59.3,444.4 52.3,445.1 49.5,451.5 53.5,457.2 60.5,456.4 63.3,450.1 	"/>
	<polygon class="st10" points="58.7,445.3 56.1,445.6 55,448 56.5,450.1 59.1,449.8 60.2,447.4 	"/>
	<polygon class="st10" points="60.1,448.8 59,448.9 58.6,449.9 59.2,450.8 60.3,450.7 60.7,449.7 	"/>
</g>
<g>
	
		<linearGradient id="SVGID_11_" gradientUnits="userSpaceOnUse" x1="37.1259" y1="403.7875" x2="30.3177" y2="416.6579" gradientTransform="matrix(0.7909 -0.6119 0.6119 0.7909 -256.047 142.7265)">
		<stop  offset="0.1764" style="stop-color:#6191FF"/>
		<stop  offset="0.5436" style="stop-color:#3574FB"/>
		<stop  offset="1" style="stop-color:#3667ED"/>
	</linearGradient>
	<polygon class="st11" points="20.8,440 15.2,444.3 16.2,451.2 22.7,453.8 28.2,449.6 27.2,442.6 	"/>
	
		<linearGradient id="SVGID_12_" gradientUnits="userSpaceOnUse" x1="37.373" y1="403.9182" x2="30.5648" y2="416.7886" gradientTransform="matrix(0.7909 -0.6119 0.6119 0.7909 -256.047 142.7265)">
		<stop  offset="0.1764" style="stop-color:#6191FF"/>
		<stop  offset="0.5436" style="stop-color:#3574FB"/>
		<stop  offset="1" style="stop-color:#3667ED"/>
	</linearGradient>
	<path class="st12" d="M21,441c-0.1-0.3-0.2-0.7-0.2-1c0,0,0,0,0,0l0,0l-0.1,0.1c0,0.3,0.1,0.5,0.1,0.8c0,0.2,0.1,0.5,0.1,0.7
		c0,0.1,0,0.2,0,0.2c0,0,0.1,0,0.1,0c0,0,0.1,0,0.1,0C21.2,441.5,21.1,441.3,21,441z"/>
	
		<linearGradient id="SVGID_13_" gradientUnits="userSpaceOnUse" x1="32.5961" y1="401.3913" x2="25.7878" y2="414.2616" gradientTransform="matrix(0.7909 -0.6119 0.6119 0.7909 -256.047 142.7265)">
		<stop  offset="0.1764" style="stop-color:#6191FF"/>
		<stop  offset="0.5436" style="stop-color:#3574FB"/>
		<stop  offset="1" style="stop-color:#3667ED"/>
	</linearGradient>
	<path class="st13" d="M16.9,444.9C16.9,444.9,16.9,444.9,16.9,444.9c-0.1-0.1-0.1-0.1-0.2-0.1c0,0-0.1,0-0.1-0.1
		c-0.1,0-0.1,0-0.2-0.1c0,0-0.1,0-0.1,0c-0.1,0-0.1,0-0.2,0c-0.3-0.1-0.6-0.1-0.9-0.3l0,0c0,0,0.1,0,0.1,0c0.4,0.1,0.7,0.3,1.1,0.4
		c0.1,0,0.2,0.1,0.3,0.1C16.8,444.9,16.9,445,16.9,444.9c0,0.1,0,0.1,0,0.1C17,445,17,445,16.9,444.9C17,445,17,445,16.9,444.9
		C17,444.9,17,444.9,16.9,444.9C17,444.9,16.9,444.9,16.9,444.9z"/>
	
		<linearGradient id="SVGID_14_" gradientUnits="userSpaceOnUse" x1="32.8632" y1="401.5326" x2="26.0549" y2="414.4029" gradientTransform="matrix(0.7909 -0.6119 0.6119 0.7909 -256.047 142.7265)">
		<stop  offset="0.1764" style="stop-color:#6191FF"/>
		<stop  offset="0.5436" style="stop-color:#3574FB"/>
		<stop  offset="1" style="stop-color:#3667ED"/>
	</linearGradient>
	<path class="st14" d="M18.5,449.2C18.5,449.1,18.5,449.1,18.5,449.2c0-0.1,0-0.1,0-0.2c0,0,0,0,0,0c0,0,0,0,0,0c0,0,0,0,0,0
		c0,0,0,0,0,0c0,0-0.1,0.1-0.1,0.1c-0.2,0.2-0.3,0.3-0.5,0.5c-0.2,0.2-0.3,0.3-0.5,0.5c-0.2,0.2-0.3,0.3-0.5,0.5
		c-0.1,0.1-0.2,0.2-0.3,0.3c0,0-0.1,0.1-0.1,0.1c0,0-0.1,0.1-0.1,0.1c0,0-0.1,0.1-0.1,0.1l0.1,0l2.2-1.7c0,0,0-0.1,0-0.1
		c0-0.1,0-0.1,0-0.2C18.5,449.2,18.5,449.2,18.5,449.2C18.5,449.2,18.5,449.2,18.5,449.2z"/>
	
		<linearGradient id="SVGID_15_" gradientUnits="userSpaceOnUse" x1="36.9193" y1="403.6782" x2="30.1111" y2="416.5486" gradientTransform="matrix(0.7909 -0.6119 0.6119 0.7909 -256.047 142.7265)">
		<stop  offset="0.1764" style="stop-color:#6191FF"/>
		<stop  offset="0.5436" style="stop-color:#3574FB"/>
		<stop  offset="1" style="stop-color:#3667ED"/>
	</linearGradient>
	<path class="st15" d="M22.4,452.1c0-0.1-0.1-0.1-0.1-0.2c0,0,0,0,0,0c0,0,0,0,0-0.1c0,0,0,0,0,0c0,0,0,0,0,0c0,0,0,0,0,0
		c0,0.1,0,0.1,0,0.2c0,0,0,0.1,0,0.1c0,0.2,0,0.4,0,0.6c0,0,0,0,0,0c0,0.2,0.1,0.4,0.1,0.6c0,0.2,0.1,0.3,0.1,0.5l0.1,0.1l0.2-0.1
		c0,0,0,0,0-0.1c0-0.2-0.1-0.4-0.1-0.6c0-0.2-0.1-0.4-0.1-0.6c0-0.1,0-0.1-0.1-0.2c0,0,0,0,0-0.1C22.5,452.2,22.4,452.1,22.4,452.1z
		"/>
	
		<linearGradient id="SVGID_16_" gradientUnits="userSpaceOnUse" x1="41.6068" y1="406.1578" x2="34.7985" y2="419.0282" gradientTransform="matrix(0.7909 -0.6119 0.6119 0.7909 -256.047 142.7265)">
		<stop  offset="0.1764" style="stop-color:#6191FF"/>
		<stop  offset="0.5436" style="stop-color:#3574FB"/>
		<stop  offset="1" style="stop-color:#3667ED"/>
	</linearGradient>
	<path class="st16" d="M27.7,449.3c-0.2,0-0.3-0.1-0.5-0.1c0,0-0.1,0-0.1-0.1c0,0,0,0-0.1,0c0,0-0.1,0-0.1-0.1c0,0-0.1,0-0.1,0
		c-0.1,0-0.1-0.1-0.2-0.1c0,0,0,0,0,0c0,0,0,0,0,0c0,0,0,0,0,0c0,0,0,0,0,0c0,0,0,0,0,0c0,0,0,0,0,0c0,0,0,0,0,0c0,0,0,0,0,0
		c0,0,0,0,0,0c0,0,0,0,0,0c0,0,0,0,0.1,0c0.1,0,0.1,0,0.2,0.1c0.1,0,0.2,0.1,0.2,0.1c0.2,0.1,0.3,0.1,0.5,0.2
		c0.2,0.1,0.3,0.1,0.5,0.2c0.1,0,0.1,0.1,0.2,0.1l0.1-0.1l0-0.1C28,449.4,27.8,449.4,27.7,449.3z"/>
	
		<linearGradient id="SVGID_17_" gradientUnits="userSpaceOnUse" x1="36.5098" y1="404.9523" x2="30.8728" y2="415.6086" gradientTransform="matrix(0.7909 -0.6119 0.6119 0.7909 -256.047 142.7265)">
		<stop  offset="0.1764" style="stop-color:#6191FF"/>
		<stop  offset="0.5436" style="stop-color:#3574FB"/>
		<stop  offset="1" style="stop-color:#3667ED"/>
	</linearGradient>
	<polygon class="st17" points="20.9,441.2 16.4,444.7 17.1,450.5 22.5,452.7 27.1,449.1 26.3,443.4 	"/>
	<polygon class="st10" points="20.9,442.1 19.2,443.4 19.5,445.6 21.5,446.4 23.2,445 22.9,442.9 	"/>
	<polygon class="st10" points="23.4,443.9 22.7,444.4 22.9,445.3 23.7,445.7 24.4,445.1 24.3,444.2 	"/>
</g>
<g>
	
		<linearGradient id="SVGID_18_" gradientUnits="userSpaceOnUse" x1="84.4448" y1="436.961" x2="77.6366" y2="449.8313" gradientTransform="matrix(0.7909 -0.6119 0.6119 0.7909 -256.047 142.7265)">
		<stop  offset="0.1764" style="stop-color:#6191FF"/>
		<stop  offset="0.5436" style="stop-color:#3574FB"/>
		<stop  offset="1" style="stop-color:#3667ED"/>
	</linearGradient>
	<polygon class="st18" points="78.5,437.3 73,441.6 73.9,448.5 80.4,451.1 85.9,446.9 85,439.9 	"/>
	
		<linearGradient id="SVGID_19_" gradientUnits="userSpaceOnUse" x1="84.6919" y1="437.0917" x2="77.8837" y2="449.962" gradientTransform="matrix(0.7909 -0.6119 0.6119 0.7909 -256.047 142.7265)">
		<stop  offset="0.1764" style="stop-color:#6191FF"/>
		<stop  offset="0.5436" style="stop-color:#3574FB"/>
		<stop  offset="1" style="stop-color:#3667ED"/>
	</linearGradient>
	<path class="st19" d="M78.8,438.3c-0.1-0.3-0.2-0.7-0.2-1c0,0,0,0,0,0l0,0l-0.1,0.1c0,0.3,0.1,0.5,0.1,0.8c0,0.2,0.1,0.5,0.1,0.7
		c0,0.1,0,0.2,0,0.2c0,0,0.1,0,0.1,0c0,0,0.1,0,0.1,0C78.9,438.8,78.8,438.5,78.8,438.3z"/>
	
		<linearGradient id="SVGID_20_" gradientUnits="userSpaceOnUse" x1="79.9149" y1="434.5647" x2="73.1067" y2="447.4351" gradientTransform="matrix(0.7909 -0.6119 0.6119 0.7909 -256.047 142.7265)">
		<stop  offset="0.1764" style="stop-color:#6191FF"/>
		<stop  offset="0.5436" style="stop-color:#3574FB"/>
		<stop  offset="1" style="stop-color:#3667ED"/>
	</linearGradient>
	<path class="st20" d="M74.7,442.2C74.6,442.2,74.6,442.1,74.7,442.2c-0.1-0.1-0.1-0.1-0.2-0.1c0,0-0.1,0-0.1-0.1
		c-0.1,0-0.1,0-0.2-0.1c0,0-0.1,0-0.1,0c-0.1,0-0.1,0-0.2,0c-0.3-0.1-0.6-0.1-0.9-0.3l0,0c0,0,0.1,0,0.1,0c0.4,0.1,0.7,0.3,1.1,0.4
		c0.1,0,0.2,0.1,0.3,0.1C74.5,442.2,74.6,442.2,74.7,442.2c0,0.1,0,0.1,0,0.1C74.7,442.3,74.7,442.3,74.7,442.2
		C74.7,442.3,74.7,442.2,74.7,442.2C74.7,442.2,74.7,442.2,74.7,442.2C74.7,442.2,74.7,442.2,74.7,442.2z"/>
	
		<linearGradient id="SVGID_21_" gradientUnits="userSpaceOnUse" x1="80.182" y1="434.706" x2="73.3738" y2="447.5764" gradientTransform="matrix(0.7909 -0.6119 0.6119 0.7909 -256.047 142.7265)">
		<stop  offset="0.1764" style="stop-color:#6191FF"/>
		<stop  offset="0.5436" style="stop-color:#3574FB"/>
		<stop  offset="1" style="stop-color:#3667ED"/>
	</linearGradient>
	<path class="st21" d="M76.2,446.4C76.2,446.4,76.2,446.4,76.2,446.4c0-0.1,0-0.1,0-0.2c0,0,0,0,0,0c0,0,0,0,0,0c0,0,0,0,0,0
		c0,0,0,0,0,0c0,0-0.1,0.1-0.1,0.1c-0.2,0.2-0.3,0.3-0.5,0.5c-0.2,0.2-0.3,0.3-0.5,0.5c-0.2,0.2-0.3,0.3-0.5,0.5
		c-0.1,0.1-0.2,0.2-0.3,0.3c0,0-0.1,0.1-0.1,0.1c0,0-0.1,0.1-0.1,0.1c0,0-0.1,0.1-0.1,0.1l0.1,0l2.2-1.7c0,0,0-0.1,0-0.1
		c0-0.1,0-0.1,0-0.2C76.2,446.5,76.2,446.5,76.2,446.4C76.2,446.5,76.2,446.5,76.2,446.4z"/>
	
		<linearGradient id="SVGID_22_" gradientUnits="userSpaceOnUse" x1="84.2382" y1="436.8517" x2="77.4299" y2="449.722" gradientTransform="matrix(0.7909 -0.6119 0.6119 0.7909 -256.047 142.7265)">
		<stop  offset="0.1764" style="stop-color:#6191FF"/>
		<stop  offset="0.5436" style="stop-color:#3574FB"/>
		<stop  offset="1" style="stop-color:#3667ED"/>
	</linearGradient>
	<path class="st22" d="M80.1,449.3c0-0.1-0.1-0.1-0.1-0.2c0,0,0,0,0,0c0,0,0,0,0-0.1c0,0,0,0,0,0c0,0,0,0,0,0c0,0,0,0,0,0
		c0,0.1,0,0.1,0,0.2c0,0,0,0.1,0,0.1c0,0.2,0,0.4,0,0.6c0,0,0,0,0,0c0,0.2,0.1,0.4,0.1,0.6c0,0.2,0.1,0.3,0.1,0.5l0.1,0.1l0.2-0.1
		c0,0,0,0,0-0.1c0-0.2-0.1-0.4-0.1-0.6c0-0.2-0.1-0.4-0.1-0.6c0-0.1,0-0.1-0.1-0.2c0,0,0,0,0-0.1C80.2,449.5,80.2,449.4,80.1,449.3z
		"/>
	
		<linearGradient id="SVGID_23_" gradientUnits="userSpaceOnUse" x1="88.9256" y1="439.3312" x2="82.1174" y2="452.2016" gradientTransform="matrix(0.7909 -0.6119 0.6119 0.7909 -256.047 142.7265)">
		<stop  offset="0.1764" style="stop-color:#6191FF"/>
		<stop  offset="0.5436" style="stop-color:#3574FB"/>
		<stop  offset="1" style="stop-color:#3667ED"/>
	</linearGradient>
	<path class="st23" d="M85.4,446.6c-0.2,0-0.3-0.1-0.5-0.1c0,0-0.1,0-0.1-0.1c0,0,0,0-0.1,0c0,0-0.1,0-0.1-0.1c0,0-0.1,0-0.1,0
		c-0.1,0-0.1-0.1-0.2-0.1c0,0,0,0,0,0c0,0,0,0,0,0c0,0,0,0,0,0c0,0,0,0,0,0c0,0,0,0,0,0c0,0,0,0,0,0c0,0,0,0,0,0c0,0,0,0,0,0
		c0,0,0,0,0,0c0,0,0,0,0,0c0,0,0,0,0.1,0c0.1,0,0.1,0,0.2,0.1c0.1,0,0.2,0.1,0.2,0.1c0.2,0.1,0.3,0.1,0.5,0.2
		c0.2,0.1,0.3,0.1,0.5,0.2c0.1,0,0.1,0.1,0.2,0.1l0.1-0.1l0-0.1C85.7,446.7,85.6,446.7,85.4,446.6z"/>
	
		<linearGradient id="SVGID_24_" gradientUnits="userSpaceOnUse" x1="83.8287" y1="438.1257" x2="78.1916" y2="448.7821" gradientTransform="matrix(0.7909 -0.6119 0.6119 0.7909 -256.047 142.7265)">
		<stop  offset="0.1764" style="stop-color:#6191FF"/>
		<stop  offset="0.5436" style="stop-color:#3574FB"/>
		<stop  offset="1" style="stop-color:#3667ED"/>
	</linearGradient>
	<polygon class="st24" points="78.7,438.5 74.1,442 74.9,447.7 80.2,449.9 84.8,446.4 84,440.7 	"/>
	<polygon class="st10" points="78.6,439.3 76.9,440.7 77.2,442.8 79.2,443.7 81,442.3 80.7,440.2 	"/>
	<polygon class="st10" points="81.2,441.2 80.5,441.7 80.6,442.6 81.4,443 82.1,442.4 82,441.5 	"/>
</g>
<g>
	
		<linearGradient id="SVGID_25_" gradientUnits="userSpaceOnUse" x1="36.7883" y1="444.0665" x2="28.292" y2="460.128" gradientTransform="matrix(0.9553 0.2957 -0.2957 0.9553 134.9297 10.1908)">
		<stop  offset="0.1764" style="stop-color:#6191FF"/>
		<stop  offset="0.5436" style="stop-color:#3574FB"/>
		<stop  offset="1" style="stop-color:#3667ED"/>
	</linearGradient>
	<polygon class="st25" points="38.4,446.1 30.1,443.5 23.7,449.5 25.6,458 33.9,460.5 40.3,454.6 	"/>
	
		<linearGradient id="SVGID_26_" gradientUnits="userSpaceOnUse" x1="37.0966" y1="444.2296" x2="28.6003" y2="460.2911" gradientTransform="matrix(0.9553 0.2957 -0.2957 0.9553 134.9297 10.1908)">
		<stop  offset="0.1764" style="stop-color:#6191FF"/>
		<stop  offset="0.5436" style="stop-color:#3574FB"/>
		<stop  offset="1" style="stop-color:#3667ED"/>
	</linearGradient>
	<path class="st26" d="M37.5,447.1c0.3-0.3,0.6-0.6,0.9-1c0,0,0,0,0,0l0-0.1l-0.1,0c-0.2,0.2-0.5,0.4-0.7,0.7
		c-0.2,0.2-0.4,0.4-0.6,0.6c-0.1,0.1-0.1,0.1-0.2,0.2c0,0.1,0.1,0.1,0.1,0.1c0,0,0.1,0.1,0.1,0.1C37.2,447.6,37.4,447.4,37.5,447.1z
		"/>
	
		<linearGradient id="SVGID_27_" gradientUnits="userSpaceOnUse" x1="31.1352" y1="441.0761" x2="22.6389" y2="457.1376" gradientTransform="matrix(0.9553 0.2957 -0.2957 0.9553 134.9297 10.1908)">
		<stop  offset="0.1764" style="stop-color:#6191FF"/>
		<stop  offset="0.5436" style="stop-color:#3574FB"/>
		<stop  offset="1" style="stop-color:#3667ED"/>
	</linearGradient>
	<path class="st27" d="M30.7,445.7C30.7,445.7,30.7,445.6,30.7,445.7c0-0.1,0-0.2,0-0.2c0-0.1,0-0.1,0-0.2c0-0.1,0-0.2-0.1-0.2
		c0,0,0-0.1,0-0.1c0-0.1-0.1-0.1-0.1-0.2c-0.1-0.4-0.3-0.7-0.4-1.1l0,0c0,0.1,0,0.1,0,0.2c0.1,0.5,0.2,1,0.4,1.4
		c0,0.1,0.1,0.2,0.1,0.4c0,0.1,0,0.1,0,0.2c0,0,0,0.1,0,0.1c0,0,0,0,0,0C30.6,445.8,30.6,445.8,30.7,445.7
		C30.6,445.8,30.6,445.8,30.7,445.7C30.7,445.7,30.7,445.7,30.7,445.7z"/>
	
		<linearGradient id="SVGID_28_" gradientUnits="userSpaceOnUse" x1="31.4685" y1="441.2525" x2="22.9722" y2="457.314" gradientTransform="matrix(0.9553 0.2957 -0.2957 0.9553 134.9297 10.1908)">
		<stop  offset="0.1764" style="stop-color:#6191FF"/>
		<stop  offset="0.5436" style="stop-color:#3574FB"/>
		<stop  offset="1" style="stop-color:#3667ED"/>
	</linearGradient>
	<path class="st28" d="M27.4,450.3C27.4,450.3,27.5,450.3,27.4,450.3c0.1-0.1,0.1-0.1,0.2-0.1c0,0,0,0,0,0c0,0,0,0,0,0c0,0,0,0,0,0
		c0,0,0,0,0,0c-0.1,0-0.1,0-0.2,0c-0.3-0.1-0.6-0.1-0.9-0.2c-0.3-0.1-0.6-0.1-0.9-0.2c-0.3-0.1-0.6-0.1-0.9-0.2
		c-0.1,0-0.3-0.1-0.4-0.1c-0.1,0-0.1,0-0.2,0c-0.1,0-0.1,0-0.2,0c-0.1,0-0.1,0-0.2,0l0,0.1l3.3,1c0,0,0.1-0.1,0.1-0.1
		c0,0,0.1-0.1,0.2-0.1C27.3,450.4,27.3,450.4,27.4,450.3C27.4,450.4,27.4,450.4,27.4,450.3z"/>
	
		<linearGradient id="SVGID_29_" gradientUnits="userSpaceOnUse" x1="36.5304" y1="443.9301" x2="28.0341" y2="459.9916" gradientTransform="matrix(0.9553 0.2957 -0.2957 0.9553 134.9297 10.1908)">
		<stop  offset="0.1764" style="stop-color:#6191FF"/>
		<stop  offset="0.5436" style="stop-color:#3574FB"/>
		<stop  offset="1" style="stop-color:#3667ED"/>
	</linearGradient>
	<path class="st29" d="M27.3,456.4c0-0.1,0.1-0.1,0.1-0.2c0,0,0,0,0,0c0,0,0,0,0-0.1c0,0,0,0,0,0c0,0,0,0,0,0c0,0,0,0,0,0
		c-0.1,0-0.1,0.1-0.2,0.1c0,0-0.1,0.1-0.1,0.1c-0.2,0.1-0.4,0.3-0.5,0.5c0,0,0,0,0,0c-0.2,0.2-0.4,0.3-0.6,0.5
		c-0.1,0.1-0.3,0.3-0.4,0.4l0,0.2l0.3,0.1c0,0,0,0,0.1-0.1c0.2-0.2,0.4-0.3,0.5-0.5c0.2-0.2,0.3-0.3,0.5-0.5
		c0.1-0.1,0.1-0.2,0.2-0.2c0,0,0,0,0-0.1C27.2,456.6,27.2,456.5,27.3,456.4z"/>
	
		<linearGradient id="SVGID_30_" gradientUnits="userSpaceOnUse" x1="42.3801" y1="447.0245" x2="33.8838" y2="463.086" gradientTransform="matrix(0.9553 0.2957 -0.2957 0.9553 134.9297 10.1908)">
		<stop  offset="0.1764" style="stop-color:#6191FF"/>
		<stop  offset="0.5436" style="stop-color:#3574FB"/>
		<stop  offset="1" style="stop-color:#3667ED"/>
	</linearGradient>
	<path class="st30" d="M33.8,459.9c-0.1-0.2-0.1-0.4-0.2-0.6c0-0.1,0-0.1,0-0.2c0,0,0,0,0-0.1c0-0.1,0-0.1,0-0.2c0-0.1,0-0.1,0-0.2
		c0-0.1,0-0.2,0-0.3c0,0,0,0,0-0.1c0,0,0,0,0,0c0,0,0,0,0,0c0,0,0,0,0,0c0,0,0,0,0,0c0,0,0,0,0,0c0,0,0,0-0.1,0c0,0,0,0,0,0
		c0,0,0,0,0,0c0,0,0,0,0,0c0,0,0,0,0,0.1c0,0.1,0,0.1,0,0.2c0,0.1,0,0.2,0.1,0.3c0.1,0.2,0.1,0.4,0.2,0.7c0.1,0.2,0.1,0.4,0.2,0.7
		c0,0.1,0,0.2,0.1,0.3l0.2,0.1l0.1-0.1C34,460.2,33.9,460.1,33.8,459.9z"/>
	
		<linearGradient id="SVGID_31_" gradientUnits="userSpaceOnUse" x1="36.0193" y1="445.5201" x2="28.9846" y2="458.8186" gradientTransform="matrix(0.9553 0.2957 -0.2957 0.9553 134.9297 10.1908)">
		<stop  offset="0.1764" style="stop-color:#6191FF"/>
		<stop  offset="0.5436" style="stop-color:#3574FB"/>
		<stop  offset="1" style="stop-color:#3667ED"/>
	</linearGradient>
	<polygon class="st31" points="37.3,447.1 30.4,445 25.1,449.9 26.7,456.9 33.6,459.1 38.9,454.2 	"/>
	<polygon class="st10" points="36.4,447.7 33.8,446.9 31.8,448.8 32.4,451.4 35,452.2 37,450.4 	"/>
	<polygon class="st10" points="36.4,451.6 35.3,451.3 34.5,452.1 34.7,453.2 35.8,453.5 36.6,452.7 	"/>
</g>
<g>
	
		<linearGradient id="SVGID_32_" gradientUnits="userSpaceOnUse" x1="56.8331" y1="417.5415" x2="50.0249" y2="430.4119" gradientTransform="matrix(0.9378 -0.3472 0.3472 0.9378 -152.3135 65.5598)">
		<stop  offset="0.1764" style="stop-color:#6191FF"/>
		<stop  offset="0.5436" style="stop-color:#3574FB"/>
		<stop  offset="1" style="stop-color:#3667ED"/>
	</linearGradient>
	<polygon class="st32" points="46.1,438.1 39.6,440.5 38.4,447.4 43.8,451.9 50.3,449.5 51.5,442.6 	"/>
	
		<linearGradient id="SVGID_33_" gradientUnits="userSpaceOnUse" x1="57.0802" y1="417.6722" x2="50.272" y2="430.5426" gradientTransform="matrix(0.9378 -0.3472 0.3472 0.9378 -152.3135 65.5598)">
		<stop  offset="0.1764" style="stop-color:#6191FF"/>
		<stop  offset="0.5436" style="stop-color:#3574FB"/>
		<stop  offset="1" style="stop-color:#3667ED"/>
	</linearGradient>
	<path class="st33" d="M46.1,439.2c0-0.3,0-0.7,0.1-1c0,0,0,0,0,0l0,0l-0.1,0c0,0.2-0.1,0.5-0.1,0.8c0,0.2-0.1,0.5-0.1,0.7
		c0,0.1,0,0.2,0,0.2c0,0,0.1,0,0.1,0.1c0,0,0.1,0,0.1,0C46,439.7,46,439.4,46.1,439.2z"/>
	
		<linearGradient id="SVGID_34_" gradientUnits="userSpaceOnUse" x1="52.3032" y1="415.1453" x2="45.495" y2="428.0157" gradientTransform="matrix(0.9378 -0.3472 0.3472 0.9378 -152.3135 65.5598)">
		<stop  offset="0.1764" style="stop-color:#6191FF"/>
		<stop  offset="0.5436" style="stop-color:#3574FB"/>
		<stop  offset="1" style="stop-color:#3667ED"/>
	</linearGradient>
	<path class="st34" d="M41,441.6C41,441.6,41,441.6,41,441.6c-0.1-0.1-0.1-0.1-0.1-0.1c0,0-0.1-0.1-0.1-0.1c-0.1,0-0.1-0.1-0.2-0.1
		c0,0-0.1,0-0.1-0.1c-0.1,0-0.1-0.1-0.2-0.1c-0.3-0.2-0.6-0.3-0.8-0.5l0,0c0,0,0.1,0.1,0.1,0.1c0.3,0.2,0.6,0.5,0.9,0.7
		c0.1,0.1,0.2,0.1,0.2,0.2C40.8,441.6,40.9,441.7,41,441.6c0,0.1,0,0.1,0,0.1c0,0,0,0,0,0C41,441.7,41,441.7,41,441.6
		C41,441.7,41,441.7,41,441.6C41,441.7,41,441.6,41,441.6z"/>
	
		<linearGradient id="SVGID_35_" gradientUnits="userSpaceOnUse" x1="52.5703" y1="415.2866" x2="45.7621" y2="428.157" gradientTransform="matrix(0.9378 -0.3472 0.3472 0.9378 -152.3135 65.5598)">
		<stop  offset="0.1764" style="stop-color:#6191FF"/>
		<stop  offset="0.5436" style="stop-color:#3574FB"/>
		<stop  offset="1" style="stop-color:#3667ED"/>
	</linearGradient>
	<path class="st35" d="M41.2,446.2C41.2,446.1,41.2,446.1,41.2,446.2c0-0.1,0.1-0.1,0.1-0.2c0,0,0,0,0,0c0,0,0,0,0,0c0,0,0,0,0,0
		c0,0,0,0,0,0C41.2,446,41.1,446,41.2,446.2c-0.3,0-0.5,0.1-0.7,0.2c-0.2,0.1-0.4,0.2-0.6,0.3c-0.2,0.1-0.4,0.2-0.6,0.3
		c-0.1,0.1-0.2,0.1-0.3,0.2c-0.1,0-0.1,0.1-0.2,0.1c-0.1,0-0.1,0.1-0.2,0.1c0,0-0.1,0-0.1,0.1l0.1,0l2.6-1c0,0,0-0.1,0-0.1
		c0,0,0-0.1,0-0.1C41.2,446.2,41.2,446.2,41.2,446.2C41.2,446.2,41.2,446.2,41.2,446.2z"/>
	
		<linearGradient id="SVGID_36_" gradientUnits="userSpaceOnUse" x1="56.6265" y1="417.4322" x2="49.8182" y2="430.3026" gradientTransform="matrix(0.9378 -0.3472 0.3472 0.9378 -152.3135 65.5598)">
		<stop  offset="0.1764" style="stop-color:#6191FF"/>
		<stop  offset="0.5436" style="stop-color:#3574FB"/>
		<stop  offset="1" style="stop-color:#3667ED"/>
	</linearGradient>
	<path class="st36" d="M44.1,450.1c0-0.1,0-0.1,0-0.2c0,0,0,0,0,0c0,0,0,0,0-0.1c0,0,0,0,0,0c0,0,0,0,0,0c0,0,0,0,0,0
		c0,0.1,0,0.1,0,0.2c0,0,0,0.1,0,0.1c0,0.2-0.1,0.4-0.1,0.5c0,0,0,0,0,0c0,0.2-0.1,0.4-0.1,0.6c0,0.2,0,0.3,0,0.5l0.1,0.1l0.2-0.1
		c0,0,0,0,0-0.1c0-0.2,0.1-0.4,0.1-0.6c0-0.2,0-0.4,0-0.6c0-0.1,0-0.2,0-0.2c0,0,0,0,0-0.1C44.1,450.2,44.1,450.2,44.1,450.1z"/>
	
		<linearGradient id="SVGID_37_" gradientUnits="userSpaceOnUse" x1="61.3139" y1="419.9118" x2="54.5057" y2="432.7822" gradientTransform="matrix(0.9378 -0.3472 0.3472 0.9378 -152.3135 65.5598)">
		<stop  offset="0.1764" style="stop-color:#6191FF"/>
		<stop  offset="0.5436" style="stop-color:#3574FB"/>
		<stop  offset="1" style="stop-color:#3667ED"/>
	</linearGradient>
	<path class="st37" d="M49.9,449.1c-0.1-0.1-0.3-0.2-0.4-0.3c0,0-0.1-0.1-0.1-0.1c0,0,0,0,0,0c0,0-0.1-0.1-0.1-0.1
		c0,0-0.1-0.1-0.1-0.1c-0.1-0.1-0.1-0.1-0.2-0.2c0,0,0,0,0,0c0,0,0,0,0,0c0,0,0,0,0,0c0,0,0,0,0,0c0,0,0,0,0,0c0,0,0,0,0,0
		c0,0,0,0,0,0c0,0,0,0,0,0c0,0,0,0,0,0c0,0,0,0,0,0c0,0,0,0,0,0c0,0,0.1,0.1,0.1,0.1c0.1,0.1,0.1,0.1,0.2,0.2
		c0.1,0.1,0.3,0.2,0.4,0.3c0.1,0.1,0.3,0.2,0.4,0.3c0.1,0,0.1,0.1,0.2,0.2l0.2-0.1l0-0.1C50.2,449.3,50,449.2,49.9,449.1z"/>
	
		<linearGradient id="SVGID_38_" gradientUnits="userSpaceOnUse" x1="56.217" y1="418.7063" x2="50.5799" y2="429.3626" gradientTransform="matrix(0.9378 -0.3472 0.3472 0.9378 -152.3135 65.5598)">
		<stop  offset="0.1764" style="stop-color:#6191FF"/>
		<stop  offset="0.5436" style="stop-color:#3574FB"/>
		<stop  offset="1" style="stop-color:#3667ED"/>
	</linearGradient>
	<polygon class="st38" points="45.9,439.3 40.5,441.3 39.5,447 44,450.7 49.4,448.7 50.4,443 	"/>
	<polygon class="st10" points="45.6,440.1 43.6,440.9 43.2,443 44.9,444.4 46.9,443.7 47.3,441.5 	"/>
	<polygon class="st10" points="47.5,442.6 46.7,442.9 46.5,443.8 47.2,444.4 48,444.1 48.2,443.2 	"/>
</g>
<g>
	
		<linearGradient id="SVGID_39_" gradientUnits="userSpaceOnUse" x1="50.8732" y1="442.1722" x2="41.8174" y2="459.2914" gradientTransform="matrix(0.9411 0.3382 -0.3382 0.9411 154.0636 14.8467)">
		<stop  offset="0.1764" style="stop-color:#6191FF"/>
		<stop  offset="0.5436" style="stop-color:#3574FB"/>
		<stop  offset="1" style="stop-color:#3667ED"/>
	</linearGradient>
	<polygon class="st39" points="52,449 43.2,445.9 36.1,451.9 37.8,461 46.5,464.2 53.6,458.2 	"/>
	
		<linearGradient id="SVGID_40_" gradientUnits="userSpaceOnUse" x1="51.2019" y1="442.346" x2="42.146" y2="459.4653" gradientTransform="matrix(0.9411 0.3382 -0.3382 0.9411 154.0636 14.8467)">
		<stop  offset="0.1764" style="stop-color:#6191FF"/>
		<stop  offset="0.5436" style="stop-color:#3574FB"/>
		<stop  offset="1" style="stop-color:#3667ED"/>
	</linearGradient>
	<path class="st40" d="M51,450.1c0.3-0.3,0.6-0.7,1-1c0,0,0,0,0,0l0-0.1l-0.1,0c-0.3,0.2-0.5,0.4-0.8,0.7c-0.2,0.2-0.5,0.4-0.7,0.6
		c-0.1,0.1-0.2,0.1-0.2,0.2c0,0.1,0.1,0.1,0.1,0.2c0,0,0.1,0.1,0.1,0.1C50.6,450.5,50.8,450.3,51,450.1z"/>
	
		<linearGradient id="SVGID_41_" gradientUnits="userSpaceOnUse" x1="44.8479" y1="438.9849" x2="35.792" y2="456.1041" gradientTransform="matrix(0.9411 0.3382 -0.3382 0.9411 154.0636 14.8467)">
		<stop  offset="0.1764" style="stop-color:#6191FF"/>
		<stop  offset="0.5436" style="stop-color:#3574FB"/>
		<stop  offset="1" style="stop-color:#3667ED"/>
	</linearGradient>
	<path class="st41" d="M43.7,448.2c0,0,0-0.1,0-0.1c0,0,0-0.1,0-0.1c0-0.1,0-0.1,0-0.2c0-0.1,0-0.2-0.1-0.3c0,0,0-0.1,0-0.1
		c0-0.1,0-0.2-0.1-0.2c-0.1-0.4-0.3-0.8-0.4-1.2l0,0c0,0.1,0,0.1,0,0.2c0.1,0.5,0.2,1,0.3,1.5c0,0.1,0.1,0.3,0.1,0.4
		c0,0.1,0,0.1,0,0.2c0,0,0,0.1,0,0.1c0,0,0,0,0,0C43.7,448.3,43.7,448.3,43.7,448.2C43.7,448.3,43.7,448.3,43.7,448.2
		C43.7,448.3,43.7,448.2,43.7,448.2z"/>
	
		<linearGradient id="SVGID_42_" gradientUnits="userSpaceOnUse" x1="45.2031" y1="439.1728" x2="36.1473" y2="456.292" gradientTransform="matrix(0.9411 0.3382 -0.3382 0.9411 154.0636 14.8467)">
		<stop  offset="0.1764" style="stop-color:#6191FF"/>
		<stop  offset="0.5436" style="stop-color:#3574FB"/>
		<stop  offset="1" style="stop-color:#3667ED"/>
	</linearGradient>
	<path class="st42" d="M40.1,453C40.1,453,40.1,453,40.1,453c0.1-0.1,0.2-0.1,0.2-0.1c0,0,0,0,0,0c0,0,0,0,0,0c0,0,0,0,0,0
		c0,0,0,0,0,0c-0.1,0-0.2,0-0.2-0.1c-0.3-0.1-0.6-0.2-0.9-0.2c-0.3-0.1-0.6-0.1-0.9-0.2c-0.3-0.1-0.6-0.1-0.9-0.2
		c-0.2,0-0.3-0.1-0.5-0.1c-0.1,0-0.2,0-0.2-0.1c-0.1,0-0.2,0-0.2-0.1c-0.1,0-0.1,0-0.2-0.1l0,0.1l3.5,1.3c0,0,0.1-0.1,0.1-0.1
		c0.1,0,0.1-0.1,0.2-0.1C40,453.1,40,453.1,40.1,453C40,453,40.1,453,40.1,453z"/>
	
		<linearGradient id="SVGID_43_" gradientUnits="userSpaceOnUse" x1="50.5983" y1="442.0268" x2="41.5425" y2="459.146" gradientTransform="matrix(0.9411 0.3382 -0.3382 0.9411 154.0636 14.8467)">
		<stop  offset="0.1764" style="stop-color:#6191FF"/>
		<stop  offset="0.5436" style="stop-color:#3574FB"/>
		<stop  offset="1" style="stop-color:#3667ED"/>
	</linearGradient>
	<path class="st43" d="M39.6,459.5c0-0.1,0.1-0.1,0.1-0.2c0,0,0,0,0,0c0,0,0-0.1,0-0.1c0,0,0,0,0,0c0,0,0,0,0,0c0,0,0,0,0,0
		c-0.1,0-0.1,0.1-0.2,0.1c0,0-0.1,0.1-0.1,0.1c-0.2,0.1-0.4,0.3-0.6,0.5c0,0,0,0,0,0c-0.2,0.2-0.4,0.4-0.6,0.5
		c-0.2,0.1-0.3,0.3-0.5,0.5l0,0.2l0.3,0.1c0,0,0,0,0.1-0.1c0.2-0.2,0.4-0.3,0.6-0.5c0.2-0.2,0.4-0.4,0.5-0.5
		c0.1-0.1,0.1-0.2,0.2-0.2c0,0,0,0,0-0.1C39.5,459.6,39.6,459.6,39.6,459.5z"/>
	
		<linearGradient id="SVGID_44_" gradientUnits="userSpaceOnUse" x1="56.8333" y1="445.325" x2="47.7774" y2="462.4442" gradientTransform="matrix(0.9411 0.3382 -0.3382 0.9411 154.0636 14.8467)">
		<stop  offset="0.1764" style="stop-color:#6191FF"/>
		<stop  offset="0.5436" style="stop-color:#3574FB"/>
		<stop  offset="1" style="stop-color:#3667ED"/>
	</linearGradient>
	<path class="st44" d="M46.4,463.5c-0.1-0.2-0.1-0.4-0.2-0.6c0-0.1,0-0.1,0-0.2c0,0,0,0,0-0.1c0-0.1,0-0.1,0-0.2c0-0.1,0-0.1,0-0.2
		c0-0.1,0-0.2,0-0.3c0,0,0,0,0-0.1c0,0,0,0,0,0c0,0,0,0,0,0c0,0,0,0,0,0c0,0,0,0,0,0c0,0,0,0,0,0c0,0,0,0-0.1,0c0,0,0,0,0,0
		c0,0,0,0,0,0c0,0,0,0,0,0c0,0,0,0.1,0,0.1c0,0.1,0,0.1,0,0.2c0,0.1,0,0.2,0.1,0.3c0,0.2,0.1,0.5,0.1,0.7c0.1,0.2,0.1,0.5,0.1,0.7
		c0,0.1,0,0.2,0,0.3l0.2,0.1l0.1-0.1C46.6,463.9,46.5,463.7,46.4,463.5z"/>
	
		<linearGradient id="SVGID_45_" gradientUnits="userSpaceOnUse" x1="50.0537" y1="443.7214" x2="42.5556" y2="457.8958" gradientTransform="matrix(0.9411 0.3382 -0.3382 0.9411 154.0636 14.8467)">
		<stop  offset="0.1764" style="stop-color:#6191FF"/>
		<stop  offset="0.5436" style="stop-color:#3574FB"/>
		<stop  offset="1" style="stop-color:#3667ED"/>
	</linearGradient>
	<polygon class="st45" points="50.8,450.1 43.5,447.5 37.6,452.4 39,460 46.2,462.6 52.1,457.6 	"/>
	<polygon class="st10" points="49.8,450.7 47,449.7 44.8,451.6 45.3,454.4 48.1,455.4 50.3,453.5 	"/>
	<polygon class="st10" points="49.5,454.8 48.4,454.4 47.5,455.2 47.7,456.4 48.8,456.8 49.7,456 	"/>
</g>
<g>
	
		<linearGradient id="SVGID_46_" gradientUnits="userSpaceOnUse" x1="78.8406" y1="415.4669" x2="72.9203" y2="426.6588" gradientTransform="matrix(0.9907 0.1359 -0.1359 0.9907 48.302 14.7519)">
		<stop  offset="0.1764" style="stop-color:#6191FF"/>
		<stop  offset="0.5436" style="stop-color:#3574FB"/>
		<stop  offset="1" style="stop-color:#3667ED"/>
	</linearGradient>
	<polygon class="st46" points="69.8,437.7 63.7,436.9 60,441.7 62.3,447.3 68.3,448.1 72.1,443.3 	"/>
	
		<linearGradient id="SVGID_47_" gradientUnits="userSpaceOnUse" x1="79.0555" y1="415.5805" x2="73.1351" y2="426.7724" gradientTransform="matrix(0.9907 0.1359 -0.1359 0.9907 48.302 14.7519)">
		<stop  offset="0.1764" style="stop-color:#6191FF"/>
		<stop  offset="0.5436" style="stop-color:#3574FB"/>
		<stop  offset="1" style="stop-color:#3667ED"/>
	</linearGradient>
	<path class="st47" d="M69.3,438.5c0.2-0.3,0.3-0.5,0.5-0.8c0,0,0,0,0,0l0,0l-0.1,0c-0.1,0.2-0.3,0.4-0.4,0.5
		c-0.1,0.2-0.2,0.3-0.4,0.5c0,0.1-0.1,0.1-0.1,0.2c0,0,0,0.1,0.1,0.1c0,0,0,0.1,0.1,0.1C69.1,438.8,69.2,438.7,69.3,438.5z"/>
	
		<linearGradient id="SVGID_48_" gradientUnits="userSpaceOnUse" x1="74.9015" y1="413.3831" x2="68.9811" y2="424.575" gradientTransform="matrix(0.9907 0.1359 -0.1359 0.9907 48.302 14.7519)">
		<stop  offset="0.1764" style="stop-color:#6191FF"/>
		<stop  offset="0.5436" style="stop-color:#3574FB"/>
		<stop  offset="1" style="stop-color:#3667ED"/>
	</linearGradient>
	<path class="st48" d="M64.4,438.3C64.4,438.3,64.4,438.2,64.4,438.3c0-0.1,0-0.1,0-0.2c0,0,0-0.1,0-0.1c0-0.1-0.1-0.1-0.1-0.2
		c0,0,0-0.1,0-0.1c0,0-0.1-0.1-0.1-0.1c-0.1-0.2-0.3-0.5-0.4-0.7l0,0c0,0,0,0.1,0,0.1c0.1,0.3,0.3,0.6,0.4,0.9
		c0,0.1,0.1,0.2,0.1,0.2C64.3,438.2,64.3,438.3,64.4,438.3C64.3,438.3,64.3,438.4,64.4,438.3C64.4,438.4,64.4,438.4,64.4,438.3
		C64.4,438.4,64.4,438.4,64.4,438.3C64.4,438.3,64.4,438.3,64.4,438.3C64.4,438.3,64.4,438.3,64.4,438.3z"/>
	
		<linearGradient id="SVGID_49_" gradientUnits="userSpaceOnUse" x1="75.1337" y1="413.506" x2="69.2134" y2="424.6979" gradientTransform="matrix(0.9907 0.1359 -0.1359 0.9907 48.302 14.7519)">
		<stop  offset="0.1764" style="stop-color:#6191FF"/>
		<stop  offset="0.5436" style="stop-color:#3574FB"/>
		<stop  offset="1" style="stop-color:#3667ED"/>
	</linearGradient>
	<path class="st49" d="M62.7,441.8C62.7,441.8,62.7,441.8,62.7,441.8c0.1-0.1,0.1-0.1,0.1-0.1c0,0,0,0,0,0c0,0,0,0,0,0c0,0,0,0,0,0
		c0,0,0,0,0,0c-0.1,0-0.1,0-0.2,0c-0.2,0-0.4,0-0.6,0c-0.2,0-0.4,0-0.6,0c-0.2,0-0.4,0-0.6,0c-0.1,0-0.2,0-0.3,0c-0.1,0-0.1,0-0.2,0
		c-0.1,0-0.1,0-0.2,0c0,0-0.1,0-0.1,0l0,0.1l2.4,0.3c0,0,0,0,0.1-0.1C62.6,442,62.6,441.9,62.7,441.8
		C62.6,441.9,62.6,441.9,62.7,441.8C62.7,441.9,62.7,441.9,62.7,441.8z"/>
	
		<linearGradient id="SVGID_50_" gradientUnits="userSpaceOnUse" x1="78.6609" y1="415.3718" x2="72.7406" y2="426.5637" gradientTransform="matrix(0.9907 0.1359 -0.1359 0.9907 48.302 14.7519)">
		<stop  offset="0.1764" style="stop-color:#6191FF"/>
		<stop  offset="0.5436" style="stop-color:#3574FB"/>
		<stop  offset="1" style="stop-color:#3667ED"/>
	</linearGradient>
	<path class="st50" d="M63.3,446c0,0,0-0.1,0-0.1c0,0,0,0,0,0c0,0,0,0,0-0.1c0,0,0,0,0,0c0,0,0,0,0,0c0,0,0,0,0,0
		c0,0-0.1,0.1-0.1,0.1c0,0-0.1,0.1-0.1,0.1c-0.1,0.1-0.2,0.2-0.3,0.4c0,0,0,0,0,0c-0.1,0.1-0.2,0.3-0.3,0.4
		c-0.1,0.1-0.2,0.2-0.2,0.4l0,0.1l0.2,0c0,0,0,0,0-0.1c0.1-0.1,0.2-0.3,0.3-0.4c0.1-0.1,0.2-0.3,0.3-0.4c0-0.1,0.1-0.1,0.1-0.2
		c0,0,0,0,0,0C63.2,446.2,63.3,446.1,63.3,446z"/>
	
		<linearGradient id="SVGID_51_" gradientUnits="userSpaceOnUse" x1="82.7371" y1="417.528" x2="76.8167" y2="428.7199" gradientTransform="matrix(0.9907 0.1359 -0.1359 0.9907 48.302 14.7519)">
		<stop  offset="0.1764" style="stop-color:#6191FF"/>
		<stop  offset="0.5436" style="stop-color:#3574FB"/>
		<stop  offset="1" style="stop-color:#3667ED"/>
	</linearGradient>
	<path class="st51" d="M68.2,447.7c-0.1-0.1-0.1-0.3-0.2-0.4c0,0,0-0.1-0.1-0.1c0,0,0,0,0,0c0,0,0-0.1,0-0.1c0,0,0-0.1,0-0.1
		c0-0.1,0-0.1-0.1-0.2c0,0,0,0,0,0c0,0,0,0,0,0c0,0,0,0,0,0c0,0,0,0,0,0c0,0,0,0,0,0c0,0,0,0,0,0c0,0,0,0,0,0c0,0,0,0,0,0
		c0,0,0,0,0,0c0,0,0,0,0,0c0,0,0,0,0,0c0,0,0,0.1,0.1,0.1c0,0.1,0.1,0.1,0.1,0.2c0.1,0.1,0.1,0.3,0.2,0.4c0.1,0.1,0.1,0.3,0.2,0.4
		c0,0.1,0,0.1,0.1,0.2l0.1,0l0.1-0.1C68.3,447.9,68.2,447.8,68.2,447.7z"/>
	
		<linearGradient id="SVGID_52_" gradientUnits="userSpaceOnUse" x1="78.3048" y1="416.4797" x2="73.4029" y2="425.7463" gradientTransform="matrix(0.9907 0.1359 -0.1359 0.9907 48.302 14.7519)">
		<stop  offset="0.1764" style="stop-color:#6191FF"/>
		<stop  offset="0.5436" style="stop-color:#3574FB"/>
		<stop  offset="1" style="stop-color:#3667ED"/>
	</linearGradient>
	<polygon class="st52" points="69.1,438.5 64.1,437.8 61.1,441.8 63,446.5 67.9,447.1 71,443.2 	"/>
	<polygon class="st10" points="68.6,439 66.7,438.8 65.5,440.3 66.3,442 68.1,442.3 69.3,440.8 	"/>
	<polygon class="st10" points="69,441.7 68.2,441.6 67.7,442.2 68,443 68.8,443.1 69.3,442.4 	"/>
</g>
<g>
	
		<linearGradient id="SVGID_53_" gradientUnits="userSpaceOnUse" x1="76.1955" y1="441.1409" x2="67.4919" y2="457.5941" gradientTransform="matrix(0.8267 -0.5626 0.5626 0.8267 -242.2196 119.7406)">
		<stop  offset="0.1764" style="stop-color:#6191FF"/>
		<stop  offset="0.5436" style="stop-color:#3574FB"/>
		<stop  offset="1" style="stop-color:#3667ED"/>
	</linearGradient>
	<polygon class="st53" points="69.4,442.4 62,447.4 62.7,456.3 70.7,460.2 78.1,455.2 77.4,446.3 	"/>
	
		<linearGradient id="SVGID_54_" gradientUnits="userSpaceOnUse" x1="76.5113" y1="441.308" x2="67.8078" y2="457.7612" gradientTransform="matrix(0.8267 -0.5626 0.5626 0.8267 -242.2196 119.7406)">
		<stop  offset="0.1764" style="stop-color:#6191FF"/>
		<stop  offset="0.5436" style="stop-color:#3574FB"/>
		<stop  offset="1" style="stop-color:#3667ED"/>
	</linearGradient>
	<path class="st54" d="M69.6,443.8c-0.1-0.4-0.2-0.9-0.2-1.3c0,0,0,0,0,0l0,0l-0.1,0.1c0,0.3,0.1,0.6,0.1,1c0,0.3,0.1,0.6,0.1,0.9
		c0,0.1,0,0.2,0,0.3c0.1,0,0.1,0,0.2,0c0.1,0,0.1,0,0.2,0C69.8,444.4,69.7,444.1,69.6,443.8z"/>
	
		<linearGradient id="SVGID_55_" gradientUnits="userSpaceOnUse" x1="70.4045" y1="438.0775" x2="61.701" y2="454.5308" gradientTransform="matrix(0.8267 -0.5626 0.5626 0.8267 -242.2196 119.7406)">
		<stop  offset="0.1764" style="stop-color:#6191FF"/>
		<stop  offset="0.5436" style="stop-color:#3574FB"/>
		<stop  offset="1" style="stop-color:#3667ED"/>
	</linearGradient>
	<path class="st55" d="M64.1,448.3C64.1,448.3,64.1,448.3,64.1,448.3c-0.1-0.1-0.2-0.1-0.2-0.1c-0.1,0-0.1-0.1-0.2-0.1
		c-0.1,0-0.2-0.1-0.2-0.1c0,0-0.1,0-0.1,0c-0.1,0-0.1,0-0.2-0.1c-0.4-0.1-0.8-0.2-1.2-0.4l0,0c0.1,0,0.1,0,0.2,0.1
		c0.5,0.2,0.9,0.4,1.4,0.6c0.1,0.1,0.2,0.1,0.3,0.2c0.1,0,0.1,0.1,0.2,0.1c0,0,0.1,0,0.1,0c0,0,0,0,0,0
		C64.2,448.5,64.2,448.4,64.1,448.3C64.1,448.4,64.1,448.4,64.1,448.3C64.1,448.4,64.1,448.4,64.1,448.3z"/>
	
		<linearGradient id="SVGID_56_" gradientUnits="userSpaceOnUse" x1="70.746" y1="438.2582" x2="62.0425" y2="454.7114" gradientTransform="matrix(0.8267 -0.5626 0.5626 0.8267 -242.2196 119.7406)">
		<stop  offset="0.1764" style="stop-color:#6191FF"/>
		<stop  offset="0.5436" style="stop-color:#3574FB"/>
		<stop  offset="1" style="stop-color:#3667ED"/>
	</linearGradient>
	<path class="st56" d="M65.8,453.9C65.8,453.9,65.8,453.9,65.8,453.9c0-0.1,0-0.2,0-0.2c0,0,0,0,0,0c0,0,0,0,0,0c0,0,0,0,0,0
		c0,0,0,0,0,0c-0.1,0-0.1,0.1-0.2,0.1c-0.2,0.2-0.5,0.4-0.7,0.6c-0.2,0.2-0.5,0.4-0.7,0.6c-0.2,0.2-0.5,0.4-0.7,0.6
		c-0.1,0.1-0.2,0.2-0.3,0.3c-0.1,0-0.1,0.1-0.2,0.1c-0.1,0-0.1,0.1-0.2,0.1c0,0-0.1,0.1-0.2,0.1l0.1,0l3-2c0,0,0-0.1,0-0.1
		c0-0.1,0-0.1,0-0.2C65.7,454,65.7,454,65.8,453.9C65.7,454,65.7,453.9,65.8,453.9z"/>
	
		<linearGradient id="SVGID_57_" gradientUnits="userSpaceOnUse" x1="75.9313" y1="441.0011" x2="67.2278" y2="457.4543" gradientTransform="matrix(0.8267 -0.5626 0.5626 0.8267 -242.2196 119.7406)">
		<stop  offset="0.1764" style="stop-color:#6191FF"/>
		<stop  offset="0.5436" style="stop-color:#3574FB"/>
		<stop  offset="1" style="stop-color:#3667ED"/>
	</linearGradient>
	<path class="st57" d="M70.5,457.9c0-0.1-0.1-0.1-0.1-0.2c0,0,0,0,0,0c0,0,0,0,0-0.1c0,0,0,0,0,0c0,0,0,0,0,0c0,0,0,0,0,0
		c0,0.1,0,0.1,0,0.2c0,0.1,0,0.1,0,0.2c0,0.2,0,0.5,0,0.7c0,0,0,0,0,0c0,0.3,0,0.5,0.1,0.8c0,0.2,0.1,0.4,0.1,0.6l0.2,0.1l0.2-0.2
		c0,0,0-0.1,0-0.1c0-0.2,0-0.5-0.1-0.7c0-0.2-0.1-0.5-0.1-0.7c0-0.1,0-0.2-0.1-0.3c0,0,0,0,0-0.1C70.6,458.1,70.6,458,70.5,457.9z"
		/>
	
		<linearGradient id="SVGID_58_" gradientUnits="userSpaceOnUse" x1="81.9236" y1="444.171" x2="73.2201" y2="460.6242" gradientTransform="matrix(0.8267 -0.5626 0.5626 0.8267 -242.2196 119.7406)">
		<stop  offset="0.1764" style="stop-color:#6191FF"/>
		<stop  offset="0.5436" style="stop-color:#3574FB"/>
		<stop  offset="1" style="stop-color:#3667ED"/>
	</linearGradient>
	<path class="st58" d="M77.5,454.9c-0.2-0.1-0.4-0.1-0.6-0.2c-0.1,0-0.1-0.1-0.2-0.1c0,0,0,0-0.1,0c-0.1,0-0.1-0.1-0.2-0.1
		c0,0-0.1,0-0.2-0.1c-0.1,0-0.2-0.1-0.3-0.1c0,0,0,0-0.1,0c0,0,0,0,0,0c0,0,0,0,0,0c0,0,0,0,0,0c0,0,0,0,0,0c0,0,0,0,0,0
		c0,0,0,0,0,0.1c0,0,0,0,0,0c0,0,0,0,0,0c0,0,0,0,0,0c0,0,0,0,0.1,0c0.1,0,0.1,0.1,0.2,0.1c0.1,0,0.2,0.1,0.3,0.1
		c0.2,0.1,0.4,0.2,0.6,0.3c0.2,0.1,0.4,0.2,0.6,0.3c0.1,0,0.2,0.1,0.3,0.1l0.2-0.1l0-0.1C77.9,455,77.7,454.9,77.5,454.9z"/>
	
		<linearGradient id="SVGID_59_" gradientUnits="userSpaceOnUse" x1="75.4078" y1="442.6299" x2="68.2015" y2="456.2527" gradientTransform="matrix(0.8267 -0.5626 0.5626 0.8267 -242.2196 119.7406)">
		<stop  offset="0.1764" style="stop-color:#6191FF"/>
		<stop  offset="0.5436" style="stop-color:#3574FB"/>
		<stop  offset="1" style="stop-color:#3667ED"/>
	</linearGradient>
	<polygon class="st59" points="69.5,443.9 63.4,448.1 63.9,455.5 70.6,458.7 76.7,454.5 76.2,447.2 	"/>
	<polygon class="st10" points="69.4,445.1 67.1,446.6 67.3,449.4 69.8,450.6 72.1,449 71.9,446.3 	"/>
	<polygon class="st10" points="72.5,447.6 71.5,448.2 71.6,449.4 72.7,449.9 73.6,449.2 73.5,448.1 	"/>
</g>
<g>
	
		<linearGradient id="SVGID_60_" gradientUnits="userSpaceOnUse" x1="57.1474" y1="435.0263" x2="50.3392" y2="447.8967" gradientTransform="matrix(0.7909 -0.6119 0.6119 0.7909 -256.047 142.7265)">
		<stop  offset="0.1764" style="stop-color:#6191FF"/>
		<stop  offset="0.5436" style="stop-color:#3574FB"/>
		<stop  offset="1" style="stop-color:#3667ED"/>
	</linearGradient>
	<polygon class="st60" points="55.7,452.5 50.2,456.7 51.1,463.7 57.6,466.3 63.1,462 62.2,455.1 	"/>
	
		<linearGradient id="SVGID_61_" gradientUnits="userSpaceOnUse" x1="57.3945" y1="435.157" x2="50.5863" y2="448.0274" gradientTransform="matrix(0.7909 -0.6119 0.6119 0.7909 -256.047 142.7265)">
		<stop  offset="0.1764" style="stop-color:#6191FF"/>
		<stop  offset="0.5436" style="stop-color:#3574FB"/>
		<stop  offset="1" style="stop-color:#3667ED"/>
	</linearGradient>
	<path class="st61" d="M56,453.5c-0.1-0.3-0.2-0.7-0.2-1c0,0,0,0,0,0l0,0l-0.1,0.1c0,0.3,0.1,0.5,0.1,0.8c0,0.2,0.1,0.5,0.1,0.7
		c0,0.1,0,0.2,0,0.2c0,0,0.1,0,0.1,0c0,0,0.1,0,0.1,0C56.1,454,56.1,453.7,56,453.5z"/>
	
		<linearGradient id="SVGID_62_" gradientUnits="userSpaceOnUse" x1="52.6175" y1="432.6301" x2="45.8093" y2="445.5004" gradientTransform="matrix(0.7909 -0.6119 0.6119 0.7909 -256.047 142.7265)">
		<stop  offset="0.1764" style="stop-color:#6191FF"/>
		<stop  offset="0.5436" style="stop-color:#3574FB"/>
		<stop  offset="1" style="stop-color:#3667ED"/>
	</linearGradient>
	<path class="st62" d="M51.9,457.3C51.9,457.3,51.8,457.3,51.9,457.3c-0.1-0.1-0.1-0.1-0.2-0.1c0,0-0.1,0-0.1-0.1
		c-0.1,0-0.1,0-0.2-0.1c0,0-0.1,0-0.1,0c-0.1,0-0.1,0-0.2,0c-0.3-0.1-0.6-0.1-0.9-0.3l0,0c0,0,0.1,0,0.1,0c0.4,0.1,0.7,0.3,1.1,0.4
		c0.1,0,0.2,0.1,0.3,0.1C51.8,457.4,51.8,457.4,51.9,457.3c0,0.1,0,0.1,0,0.1C51.9,457.4,51.9,457.5,51.9,457.3
		C51.9,457.4,51.9,457.4,51.9,457.3C51.9,457.4,51.9,457.4,51.9,457.3C51.9,457.4,51.9,457.4,51.9,457.3z"/>
	
		<linearGradient id="SVGID_63_" gradientUnits="userSpaceOnUse" x1="52.8846" y1="432.7714" x2="46.0764" y2="445.6417" gradientTransform="matrix(0.7909 -0.6119 0.6119 0.7909 -256.047 142.7265)">
		<stop  offset="0.1764" style="stop-color:#6191FF"/>
		<stop  offset="0.5436" style="stop-color:#3574FB"/>
		<stop  offset="1" style="stop-color:#3667ED"/>
	</linearGradient>
	<path class="st63" d="M53.4,461.6C53.4,461.6,53.4,461.6,53.4,461.6c0-0.1,0-0.1,0-0.2c0,0,0,0,0,0c0,0,0,0,0,0c0,0,0,0,0,0
		c0,0,0,0,0,0c0,0-0.1,0.1-0.1,0.1c-0.2,0.2-0.3,0.3-0.5,0.5c-0.2,0.2-0.3,0.3-0.5,0.5c-0.2,0.2-0.3,0.3-0.5,0.5
		c-0.1,0.1-0.2,0.2-0.3,0.3c0,0-0.1,0.1-0.1,0.1c0,0-0.1,0.1-0.1,0.1c0,0-0.1,0.1-0.1,0.1l0.1,0l2.2-1.7c0,0,0-0.1,0-0.1
		c0-0.1,0-0.1,0-0.2C53.4,461.7,53.4,461.7,53.4,461.6C53.4,461.6,53.4,461.6,53.4,461.6z"/>
	
		<linearGradient id="SVGID_64_" gradientUnits="userSpaceOnUse" x1="56.9408" y1="434.917" x2="50.1325" y2="447.7874" gradientTransform="matrix(0.7909 -0.6119 0.6119 0.7909 -256.047 142.7265)">
		<stop  offset="0.1764" style="stop-color:#6191FF"/>
		<stop  offset="0.5436" style="stop-color:#3574FB"/>
		<stop  offset="1" style="stop-color:#3667ED"/>
	</linearGradient>
	<path class="st64" d="M57.4,464.5c0-0.1-0.1-0.1-0.1-0.2c0,0,0,0,0,0c0,0,0,0,0-0.1c0,0,0,0,0,0c0,0,0,0,0,0c0,0,0,0,0,0
		c0,0.1,0,0.1,0,0.2c0,0,0,0.1,0,0.1c0,0.2,0,0.4,0,0.6c0,0,0,0,0,0c0,0.2,0.1,0.4,0.1,0.6c0,0.2,0.1,0.3,0.1,0.5l0.1,0.1l0.2-0.1
		c0,0,0,0,0-0.1c0-0.2-0.1-0.4-0.1-0.6c0-0.2-0.1-0.4-0.1-0.6c0-0.1,0-0.1-0.1-0.2c0,0,0,0,0-0.1C57.4,464.6,57.4,464.6,57.4,464.5z
		"/>
	
		<linearGradient id="SVGID_65_" gradientUnits="userSpaceOnUse" x1="61.6282" y1="437.3966" x2="54.82" y2="450.267" gradientTransform="matrix(0.7909 -0.6119 0.6119 0.7909 -256.047 142.7265)">
		<stop  offset="0.1764" style="stop-color:#6191FF"/>
		<stop  offset="0.5436" style="stop-color:#3574FB"/>
		<stop  offset="1" style="stop-color:#3667ED"/>
	</linearGradient>
	<path class="st65" d="M62.6,461.8c-0.2,0-0.3-0.1-0.5-0.1c0,0-0.1,0-0.1-0.1c0,0,0,0-0.1,0c0,0-0.1,0-0.1-0.1c0,0-0.1,0-0.1,0
		c-0.1,0-0.1-0.1-0.2-0.1c0,0,0,0,0,0c0,0,0,0,0,0c0,0,0,0,0,0c0,0,0,0,0,0c0,0,0,0,0,0c0,0,0,0,0,0c0,0,0,0,0,0c0,0,0,0,0,0
		c0,0,0,0,0,0c0,0,0,0,0,0c0,0,0,0,0.1,0c0.1,0,0.1,0,0.2,0.1c0.1,0,0.2,0.1,0.2,0.1c0.2,0.1,0.3,0.1,0.5,0.2
		c0.2,0.1,0.3,0.1,0.5,0.2c0.1,0,0.1,0.1,0.2,0.1l0.1-0.1l0-0.1C63,461.9,62.8,461.8,62.6,461.8z"/>
	
		<linearGradient id="SVGID_66_" gradientUnits="userSpaceOnUse" x1="56.5313" y1="436.1911" x2="50.8942" y2="446.8474" gradientTransform="matrix(0.7909 -0.6119 0.6119 0.7909 -256.047 142.7265)">
		<stop  offset="0.1764" style="stop-color:#6191FF"/>
		<stop  offset="0.5436" style="stop-color:#3574FB"/>
		<stop  offset="1" style="stop-color:#3667ED"/>
	</linearGradient>
	<polygon class="st66" points="55.9,453.6 51.3,457.2 52.1,462.9 57.4,465.1 62,461.6 61.2,455.8 	"/>
	<polygon class="st10" points="55.9,454.5 54.1,455.8 54.4,458 56.5,458.8 58.2,457.5 57.9,455.3 	"/>
	<polygon class="st10" points="58.4,456.3 57.7,456.9 57.8,457.8 58.6,458.1 59.4,457.6 59.2,456.7 	"/>
</g>
<g>
	
		<linearGradient id="SVGID_67_" gradientUnits="userSpaceOnUse" x1="35.1217" y1="411.9648" x2="29.2013" y2="423.1567" gradientTransform="matrix(0.9357 -0.3527 0.3527 0.9357 -152.7203 73.8047)">
		<stop  offset="0.1764" style="stop-color:#6191FF"/>
		<stop  offset="0.5436" style="stop-color:#3574FB"/>
		<stop  offset="1" style="stop-color:#3667ED"/>
	</linearGradient>
	<polygon class="st67" points="25.6,447.5 19.9,449.7 18.9,455.7 23.6,459.5 29.3,457.4 30.3,451.4 	"/>
	
		<linearGradient id="SVGID_68_" gradientUnits="userSpaceOnUse" x1="35.3365" y1="412.0784" x2="29.4162" y2="423.2703" gradientTransform="matrix(0.9357 -0.3527 0.3527 0.9357 -152.7203 73.8047)">
		<stop  offset="0.1764" style="stop-color:#6191FF"/>
		<stop  offset="0.5436" style="stop-color:#3574FB"/>
		<stop  offset="1" style="stop-color:#3667ED"/>
	</linearGradient>
	<path class="st68" d="M25.6,448.4c0-0.3,0-0.6,0.1-0.9c0,0,0,0,0,0l0,0l-0.1,0c0,0.2-0.1,0.4-0.1,0.7c0,0.2-0.1,0.4-0.1,0.6
		c0,0.1,0,0.1,0,0.2c0,0,0.1,0,0.1,0c0,0,0.1,0,0.1,0C25.5,448.9,25.6,448.7,25.6,448.4z"/>
	
		<linearGradient id="SVGID_69_" gradientUnits="userSpaceOnUse" x1="31.1825" y1="409.881" x2="25.2622" y2="421.0729" gradientTransform="matrix(0.9357 -0.3527 0.3527 0.9357 -152.7203 73.8047)">
		<stop  offset="0.1764" style="stop-color:#6191FF"/>
		<stop  offset="0.5436" style="stop-color:#3574FB"/>
		<stop  offset="1" style="stop-color:#3667ED"/>
	</linearGradient>
	<path class="st69" d="M21.2,450.6C21.2,450.6,21.1,450.6,21.2,450.6c-0.1-0.1-0.1-0.1-0.1-0.1c0,0-0.1-0.1-0.1-0.1
		c0,0-0.1-0.1-0.1-0.1c0,0,0,0-0.1,0c0,0-0.1-0.1-0.1-0.1c-0.2-0.1-0.5-0.3-0.7-0.5l0,0c0,0,0.1,0,0.1,0.1c0.3,0.2,0.5,0.4,0.8,0.6
		c0.1,0.1,0.1,0.1,0.2,0.2C21.1,450.6,21.1,450.6,21.2,450.6C21.1,450.7,21.2,450.7,21.2,450.6C21.2,450.7,21.2,450.7,21.2,450.6
		C21.2,450.7,21.2,450.7,21.2,450.6C21.2,450.6,21.2,450.6,21.2,450.6C21.2,450.6,21.2,450.6,21.2,450.6z"/>
	
		<linearGradient id="SVGID_70_" gradientUnits="userSpaceOnUse" x1="31.4148" y1="410.0039" x2="25.4944" y2="421.1958" gradientTransform="matrix(0.9357 -0.3527 0.3527 0.9357 -152.7203 73.8047)">
		<stop  offset="0.1764" style="stop-color:#6191FF"/>
		<stop  offset="0.5436" style="stop-color:#3574FB"/>
		<stop  offset="1" style="stop-color:#3667ED"/>
	</linearGradient>
	<path class="st70" d="M21.4,454.5C21.4,454.5,21.4,454.5,21.4,454.5c0-0.1,0-0.1,0.1-0.1c0,0,0,0,0,0c0,0,0,0,0,0c0,0,0,0,0,0
		c0,0,0,0,0,0C21.4,454.4,21.3,454.4,21.4,454.5c-0.3,0-0.5,0.1-0.6,0.2c-0.2,0.1-0.4,0.2-0.6,0.3c-0.2,0.1-0.4,0.2-0.5,0.3
		c-0.1,0-0.2,0.1-0.3,0.1c0,0-0.1,0-0.1,0.1c0,0-0.1,0-0.1,0.1c0,0-0.1,0-0.1,0.1l0,0l2.3-0.9c0,0,0-0.1,0-0.1
		C21.3,454.7,21.3,454.7,21.4,454.5C21.3,454.6,21.4,454.6,21.4,454.5C21.4,454.6,21.4,454.6,21.4,454.5z"/>
	
		<linearGradient id="SVGID_71_" gradientUnits="userSpaceOnUse" x1="34.942" y1="411.8697" x2="29.0216" y2="423.0616" gradientTransform="matrix(0.9357 -0.3527 0.3527 0.9357 -152.7203 73.8047)">
		<stop  offset="0.1764" style="stop-color:#6191FF"/>
		<stop  offset="0.5436" style="stop-color:#3574FB"/>
		<stop  offset="1" style="stop-color:#3667ED"/>
	</linearGradient>
	<path class="st71" d="M23.9,458c0,0,0-0.1,0-0.1c0,0,0,0,0,0c0,0,0,0,0-0.1c0,0,0,0,0,0c0,0,0,0,0,0c0,0,0,0,0,0c0,0,0,0.1,0,0.1
		c0,0,0,0.1,0,0.1c0,0.2-0.1,0.3-0.1,0.5c0,0,0,0,0,0c0,0.2-0.1,0.4-0.1,0.5c0,0.1,0,0.3,0,0.4l0.1,0.1l0.2-0.1c0,0,0,0,0-0.1
		c0-0.2,0.1-0.3,0.1-0.5c0-0.2,0-0.3,0-0.5c0-0.1,0-0.1,0-0.2c0,0,0,0,0-0.1C23.9,458.1,23.9,458,23.9,458z"/>
	
		<linearGradient id="SVGID_72_" gradientUnits="userSpaceOnUse" x1="39.0181" y1="414.0259" x2="33.0978" y2="425.2178" gradientTransform="matrix(0.9357 -0.3527 0.3527 0.9357 -152.7203 73.8047)">
		<stop  offset="0.1764" style="stop-color:#6191FF"/>
		<stop  offset="0.5436" style="stop-color:#3574FB"/>
		<stop  offset="1" style="stop-color:#3667ED"/>
	</linearGradient>
	<path class="st72" d="M29,457c-0.1-0.1-0.2-0.2-0.4-0.2c0,0-0.1-0.1-0.1-0.1c0,0,0,0,0,0c0,0-0.1-0.1-0.1-0.1c0,0-0.1,0-0.1-0.1
		c-0.1,0-0.1-0.1-0.1-0.1c0,0,0,0,0,0c0,0,0,0,0,0c0,0,0,0,0,0c0,0,0,0,0,0c0,0,0,0,0,0c0,0,0,0,0,0c0,0,0,0,0,0c0,0,0,0,0,0
		c0,0,0,0,0,0c0,0,0,0,0,0c0,0,0,0,0,0c0,0,0.1,0.1,0.1,0.1c0.1,0,0.1,0.1,0.2,0.1c0.1,0.1,0.3,0.2,0.4,0.3c0.1,0.1,0.2,0.2,0.4,0.3
		c0.1,0,0.1,0.1,0.1,0.1l0.1-0.1l0-0.1C29.2,457.2,29.1,457.1,29,457z"/>
	
		<linearGradient id="SVGID_73_" gradientUnits="userSpaceOnUse" x1="34.5859" y1="412.9776" x2="29.684" y2="422.2443" gradientTransform="matrix(0.9357 -0.3527 0.3527 0.9357 -152.7203 73.8047)">
		<stop  offset="0.1764" style="stop-color:#6191FF"/>
		<stop  offset="0.5436" style="stop-color:#3574FB"/>
		<stop  offset="1" style="stop-color:#3667ED"/>
	</linearGradient>
	<polygon class="st73" points="25.4,448.5 20.7,450.3 19.9,455.3 23.8,458.5 28.5,456.7 29.3,451.7 	"/>
	<polygon class="st10" points="25.2,449.3 23.4,449.9 23.1,451.8 24.6,453 26.4,452.3 26.7,450.5 	"/>
	<polygon class="st10" points="26.8,451.4 26.1,451.7 26,452.5 26.6,453 27.3,452.7 27.4,451.9 	"/>
</g>
</svg>
