<?xml version="1.0" encoding="utf-8"?>
<!-- Generator: Adobe Illustrator 24.1.2, SVG Export Plug-In . SVG Version: 6.00 Build 0)  -->
<svg version="1.1" id="Capa_3" xmlns="http://www.w3.org/2000/svg" xmlns:xlink="http://www.w3.org/1999/xlink" x="0px" y="0px"
	 viewBox="0 0 442.6 233.3" style="enable-background:new 0 0 442.6 233.3;" xml:space="preserve">
<style type="text/css">
	.st0{fill:url(#SVGID_1_);}
	.st1{fill:url(#SVGID_2_);}
	.st2{opacity:0.4;fill:url(#SVGID_3_);}
	.st3{opacity:0.5;fill:url(#SVGID_4_);}
	.st4{opacity:0.5;fill:url(#SVGID_5_);}
	.st5{opacity:0.5;fill:url(#SVGID_6_);}
	.st6{opacity:0.5;fill:url(#SVGID_7_);}
	.st7{opacity:0.5;fill:url(#SVGID_8_);}
	.st8{opacity:0.5;fill:url(#SVGID_9_);}
	.st9{fill:url(#SVGID_10_);}
	.st10{opacity:0.23;fill:#FFFFFF;}
	.st11{opacity:0.5;fill:url(#SVGID_11_);}
	.st12{opacity:0.5;fill:url(#SVGID_12_);}
	.st13{opacity:0.5;fill:url(#SVGID_13_);}
	.st14{opacity:0.5;fill:url(#SVGID_14_);}
	.st15{opacity:0.5;fill:url(#SVGID_15_);}
	.st16{opacity:0.5;fill:url(#SVGID_16_);}
	.st17{fill:url(#SVGID_17_);}
	.st18{opacity:0.5;fill:url(#SVGID_18_);}
	.st19{opacity:0.5;fill:url(#SVGID_19_);}
	.st20{opacity:0.5;fill:url(#SVGID_20_);}
	.st21{opacity:0.5;fill:url(#SVGID_21_);}
	.st22{opacity:0.5;fill:url(#SVGID_22_);}
	.st23{opacity:0.5;fill:url(#SVGID_23_);}
	.st24{fill:url(#SVGID_24_);}
	.st25{opacity:0.5;fill:url(#SVGID_25_);}
	.st26{opacity:0.5;fill:url(#SVGID_26_);}
	.st27{opacity:0.5;fill:url(#SVGID_27_);}
	.st28{opacity:0.5;fill:url(#SVGID_28_);}
	.st29{opacity:0.5;fill:url(#SVGID_29_);}
	.st30{opacity:0.5;fill:url(#SVGID_30_);}
	.st31{fill:url(#SVGID_31_);}
	.st32{opacity:0.5;fill:url(#SVGID_32_);}
	.st33{opacity:0.5;fill:url(#SVGID_33_);}
	.st34{opacity:0.5;fill:url(#SVGID_34_);}
	.st35{opacity:0.5;fill:url(#SVGID_35_);}
	.st36{opacity:0.5;fill:url(#SVGID_36_);}
	.st37{opacity:0.5;fill:url(#SVGID_37_);}
	.st38{fill:url(#SVGID_38_);}
	.st39{opacity:0.5;fill:url(#SVGID_39_);}
	.st40{opacity:0.5;fill:url(#SVGID_40_);}
	.st41{opacity:0.5;fill:url(#SVGID_41_);}
	.st42{opacity:0.5;fill:url(#SVGID_42_);}
	.st43{opacity:0.5;fill:url(#SVGID_43_);}
	.st44{opacity:0.5;fill:url(#SVGID_44_);}
	.st45{fill:url(#SVGID_45_);}
	.st46{opacity:0.5;fill:url(#SVGID_46_);}
	.st47{opacity:0.5;fill:url(#SVGID_47_);}
	.st48{opacity:0.5;fill:url(#SVGID_48_);}
	.st49{opacity:0.5;fill:url(#SVGID_49_);}
	.st50{opacity:0.5;fill:url(#SVGID_50_);}
	.st51{opacity:0.5;fill:url(#SVGID_51_);}
	.st52{fill:url(#SVGID_52_);}
	.st53{opacity:0.5;fill:url(#SVGID_53_);}
	.st54{opacity:0.5;fill:url(#SVGID_54_);}
	.st55{opacity:0.5;fill:url(#SVGID_55_);}
	.st56{opacity:0.5;fill:url(#SVGID_56_);}
	.st57{opacity:0.5;fill:url(#SVGID_57_);}
	.st58{opacity:0.5;fill:url(#SVGID_58_);}
	.st59{fill:url(#SVGID_59_);}
	.st60{opacity:0.5;fill:url(#SVGID_60_);}
	.st61{opacity:0.5;fill:url(#SVGID_61_);}
	.st62{opacity:0.5;fill:url(#SVGID_62_);}
	.st63{opacity:0.5;fill:url(#SVGID_63_);}
	.st64{opacity:0.5;fill:url(#SVGID_64_);}
	.st65{opacity:0.5;fill:url(#SVGID_65_);}
	.st66{fill:url(#SVGID_66_);}
	.st67{opacity:0.5;fill:url(#SVGID_67_);}
	.st68{opacity:0.5;fill:url(#SVGID_68_);}
	.st69{opacity:0.5;fill:url(#SVGID_69_);}
	.st70{opacity:0.5;fill:url(#SVGID_70_);}
	.st71{opacity:0.5;fill:url(#SVGID_71_);}
	.st72{opacity:0.5;fill:url(#SVGID_72_);}
	.st73{fill:url(#SVGID_73_);}
</style>
<g id="Capa_2">
</g>
<g>
	
		<linearGradient id="SVGID_1_" gradientUnits="userSpaceOnUse" x1="-10.7727" y1="-546.6648" x2="367.3169" y2="-126.8095" gradientTransform="matrix(0.3148 0.9492 -0.737 0.2444 16.7826 -81.3613)">
		<stop  offset="0.2652" style="stop-color:#DDDDDD"/>
		<stop  offset="0.63" style="stop-color:#C9C8DB"/>
		<stop  offset="1" style="stop-color:#8A8AA1"/>
	</linearGradient>
	<path class="st0" d="M167.2,121.1l-10.1-30.4L423.2,2.4c7.5-2.5,15.6,1.6,18.1,9.1l1.1,3.2c2.5,7.5-1.6,15.6-9.1,18.1L167.2,121.1z
		"/>
	
		<linearGradient id="SVGID_2_" gradientUnits="userSpaceOnUse" x1="-38.759" y1="-122.9565" x2="443.8392" y2="11.0986" gradientTransform="matrix(8.170917e-02 1.0265 -0.9492 0.3148 24.1777 -83.8139)">
		<stop  offset="0.2652" style="stop-color:#DDDDDD"/>
		<stop  offset="0.63" style="stop-color:#C9C8DB"/>
		<stop  offset="1" style="stop-color:#8A8AA1"/>
	</linearGradient>
	<path class="st1" d="M27.2,233.3L0,87.7l96-31.8c42.7-14.2,83.4,6.9,90.9,47.1l0,0c7.5,40.2-21,84.2-63.7,98.4L27.2,233.3z"/>
	
		<linearGradient id="SVGID_3_" gradientUnits="userSpaceOnUse" x1="16.3783" y1="-95.7678" x2="391.9838" y2="8.5671" gradientTransform="matrix(8.170917e-02 1.0265 -0.9492 0.3148 24.1777 -83.8139)">
		<stop  offset="0.2652" style="stop-color:#BFBFBF"/>
		<stop  offset="0.63" style="stop-color:#ADACBD"/>
		<stop  offset="1" style="stop-color:#707083"/>
	</linearGradient>
	<path class="st2" d="M23,211L2.7,102.2L93,72.3c31.9-10.6,62.3,5.2,67.9,35.2l0,0c5.6,30-15.7,62.9-47.6,73.5L23,211z"/>
	<g>
		
			<linearGradient id="SVGID_4_" gradientUnits="userSpaceOnUse" x1="83.7061" y1="-65.9764" x2="61.4254" y2="-23.8567" gradientTransform="matrix(0.3752 -0.9269 0.9269 0.3752 59.3886 178.8223)">
			<stop  offset="0.1764" style="stop-color:#6191FF"/>
			<stop  offset="0.5436" style="stop-color:#3574FB"/>
			<stop  offset="1" style="stop-color:#3667ED"/>
		</linearGradient>
		<polygon class="st3" points="31.7,77.6 23.1,98.8 37.2,116.9 59.8,113.7 68.4,92.5 54.4,74.5 		"/>
		
			<linearGradient id="SVGID_5_" gradientUnits="userSpaceOnUse" x1="84.5147" y1="-65.5487" x2="62.234" y2="-23.429" gradientTransform="matrix(0.3752 -0.9269 0.9269 0.3752 59.3886 178.8223)">
			<stop  offset="0.1764" style="stop-color:#6191FF"/>
			<stop  offset="0.5436" style="stop-color:#3574FB"/>
			<stop  offset="1" style="stop-color:#3667ED"/>
		</linearGradient>
		<path class="st4" d="M34.2,80.1c-0.8-0.8-1.6-1.6-2.3-2.5c0,0,0,0,0,0l-0.1,0l-0.1,0.3c0.5,0.7,1,1.3,1.6,1.9
			c0.5,0.6,1,1.2,1.4,1.8c0.2,0.2,0.3,0.4,0.5,0.6c0.1-0.1,0.3-0.1,0.4-0.2c0.1-0.1,0.2-0.1,0.4-0.2C35.3,81.2,34.7,80.7,34.2,80.1z
			"/>
		
			<linearGradient id="SVGID_6_" gradientUnits="userSpaceOnUse" x1="68.8815" y1="-73.8184" x2="46.6008" y2="-31.6987" gradientTransform="matrix(0.3752 -0.9269 0.9269 0.3752 59.3886 178.8223)">
			<stop  offset="0.1764" style="stop-color:#6191FF"/>
			<stop  offset="0.5436" style="stop-color:#3574FB"/>
			<stop  offset="1" style="stop-color:#3667ED"/>
		</linearGradient>
		<path class="st5" d="M28.9,97.8c-0.1,0-0.2,0-0.3,0c-0.1,0-0.2,0-0.4,0c-0.2,0-0.3,0-0.5,0.1c-0.2,0-0.4,0.1-0.6,0.1
			C27.1,98,27,98,26.9,98c-0.2,0.1-0.4,0.1-0.6,0.2c-1,0.3-2,0.6-3,0.8l0,0c0.1,0,0.3,0,0.4-0.1c1.3-0.2,2.5-0.4,3.8-0.6
			c0.3-0.1,0.6-0.1,1-0.2c0.2,0,0.3-0.1,0.5-0.1c0.1,0,0.2,0,0.2,0c0,0,0,0,0,0c0-0.1-0.1-0.1-0.1-0.1c0,0,0,0,0,0
			C29,97.8,29,97.8,28.9,97.8z"/>
		
			<linearGradient id="SVGID_7_" gradientUnits="userSpaceOnUse" x1="69.7556" y1="-73.356" x2="47.4749" y2="-31.2363" gradientTransform="matrix(0.3752 -0.9269 0.9269 0.3752 59.3886 178.8223)">
			<stop  offset="0.1764" style="stop-color:#6191FF"/>
			<stop  offset="0.5436" style="stop-color:#3574FB"/>
			<stop  offset="1" style="stop-color:#3667ED"/>
		</linearGradient>
		<path class="st6" d="M40.3,107.3c0-0.1-0.1-0.1-0.1-0.2c0-0.1-0.1-0.2-0.1-0.3c0,0,0,0,0-0.1c0,0,0,0,0,0c0,0,0,0,0,0
			c0,0,0,0,0,0.1c-0.1,0.2-0.1,0.4-0.2,0.6c-0.2,0.7-0.4,1.5-0.6,2.3c-0.2,0.8-0.4,1.5-0.6,2.3c-0.2,0.8-0.4,1.5-0.6,2.3
			c-0.1,0.4-0.2,0.8-0.3,1.1c-0.1,0.2-0.1,0.4-0.2,0.6c-0.1,0.2-0.1,0.4-0.2,0.6c0,0.2-0.1,0.3-0.2,0.5l0.2,0l3.4-8.5
			c-0.1-0.1-0.1-0.2-0.2-0.3c-0.1-0.1-0.2-0.3-0.2-0.4c0-0.1-0.1-0.1-0.1-0.2C40.4,107.4,40.4,107.3,40.3,107.3z"/>
		
			<linearGradient id="SVGID_8_" gradientUnits="userSpaceOnUse" x1="83.0298" y1="-66.3342" x2="60.7491" y2="-24.2145" gradientTransform="matrix(0.3752 -0.9269 0.9269 0.3752 59.3886 178.8223)">
			<stop  offset="0.1764" style="stop-color:#6191FF"/>
			<stop  offset="0.5436" style="stop-color:#3574FB"/>
			<stop  offset="1" style="stop-color:#3667ED"/>
		</linearGradient>
		<path class="st7" d="M56.2,109c-0.2-0.1-0.3-0.2-0.5-0.3c0,0,0,0,0,0c-0.1,0-0.1-0.1-0.2-0.1c0,0-0.1,0-0.1,0c0,0,0,0,0,0
			c0,0,0,0,0,0c0.1,0.2,0.2,0.3,0.3,0.5c0.1,0.1,0.2,0.2,0.2,0.4c0.3,0.5,0.7,1,1.1,1.5c0,0,0,0,0,0c0.4,0.5,0.8,1.1,1.3,1.6
			c0.3,0.4,0.7,0.8,1.1,1.2l0.5-0.1l0.3-0.6c-0.1-0.1-0.1-0.1-0.2-0.2c-0.4-0.5-0.8-1-1.2-1.5c-0.4-0.5-0.8-0.9-1.3-1.4
			c-0.2-0.2-0.4-0.3-0.6-0.5c-0.1,0-0.1-0.1-0.2-0.1C56.6,109.3,56.4,109.2,56.2,109z"/>
		
			<linearGradient id="SVGID_9_" gradientUnits="userSpaceOnUse" x1="98.37" y1="-58.2194" x2="76.0893" y2="-16.0997" gradientTransform="matrix(0.3752 -0.9269 0.9269 0.3752 59.3886 178.8223)">
			<stop  offset="0.1764" style="stop-color:#6191FF"/>
			<stop  offset="0.5436" style="stop-color:#3574FB"/>
			<stop  offset="1" style="stop-color:#3667ED"/>
		</linearGradient>
		<path class="st8" d="M66.6,92.7c-0.5,0.1-1.1,0.3-1.6,0.4c-0.2,0-0.3,0.1-0.5,0.1c-0.1,0-0.1,0-0.2,0c-0.2,0-0.3,0-0.5,0.1
			c-0.1,0-0.3,0.1-0.4,0.1c-0.3,0-0.5,0-0.8,0.1c-0.1,0-0.1,0-0.2,0c0,0-0.1,0-0.1,0c0,0-0.1,0-0.1,0c0,0,0,0,0,0c0,0,0,0,0,0.1
			c0,0,0,0.1,0,0.1c0,0.1,0,0.1,0,0.2c0,0,0,0,0,0c0,0,0,0,0,0c0,0,0.1,0,0.1,0c0.1,0,0.1,0,0.2,0c0.2,0,0.4,0,0.6-0.1
			c0.3,0,0.5-0.1,0.8-0.1c0.6-0.1,1.2-0.2,1.8-0.3c0.6-0.1,1.2-0.2,1.8-0.3c0.2,0,0.5,0,0.7-0.1l0.2-0.5l-0.2-0.3
			C67.7,92.4,67.2,92.5,66.6,92.7z"/>
		
			<linearGradient id="SVGID_10_" gradientUnits="userSpaceOnUse" x1="81.6897" y1="-62.1646" x2="63.2418" y2="-27.2905" gradientTransform="matrix(0.3752 -0.9269 0.9269 0.3752 59.3886 178.8223)">
			<stop  offset="0.1764" style="stop-color:#6191FF"/>
			<stop  offset="0.5436" style="stop-color:#3574FB"/>
			<stop  offset="1" style="stop-color:#3667ED"/>
		</linearGradient>
		<polygon class="st9" points="34.1,80.7 27,98.3 38.7,113.2 57.4,110.6 64.5,93 52.9,78.1 		"/>
		<polygon class="st10" points="35.5,83.2 32.9,89.8 37.2,95.5 44.3,94.5 47,87.9 42.6,82.2 		"/>
		<polygon class="st10" points="45.7,84.2 44.6,87 46.4,89.3 49.3,88.9 50.4,86.1 48.6,83.8 		"/>
	</g>
	<g>
		
			<linearGradient id="SVGID_11_" gradientUnits="userSpaceOnUse" x1="175.8134" y1="4.8063" x2="161.4684" y2="31.9243" gradientTransform="matrix(0.8881 -0.4596 0.4596 0.8881 -70.4987 136.9065)">
			<stop  offset="0.1764" style="stop-color:#6191FF"/>
			<stop  offset="0.5436" style="stop-color:#3574FB"/>
			<stop  offset="1" style="stop-color:#3667ED"/>
		</linearGradient>
		<polygon class="st11" points="88.4,61.8 75.3,68.6 74.6,83.3 87,91.2 100.1,84.5 100.8,69.7 		"/>
		
			<linearGradient id="SVGID_12_" gradientUnits="userSpaceOnUse" x1="176.334" y1="5.0817" x2="161.989" y2="32.1997" gradientTransform="matrix(0.8881 -0.4596 0.4596 0.8881 -70.4987 136.9065)">
			<stop  offset="0.1764" style="stop-color:#6191FF"/>
			<stop  offset="0.5436" style="stop-color:#3574FB"/>
			<stop  offset="1" style="stop-color:#3667ED"/>
		</linearGradient>
		<path class="st12" d="M88.6,64.1c0-0.7-0.1-1.4-0.1-2.2c0,0,0,0,0,0l-0.1,0l-0.2,0.1c0,0.5,0,1.1,0,1.6c0,0.5,0,1,0,1.5
			c0,0.2,0,0.3,0,0.5c0.1,0,0.2,0.1,0.3,0.1c0.1,0,0.2,0,0.3,0C88.6,65.1,88.6,64.6,88.6,64.1z"/>
		
			<linearGradient id="SVGID_13_" gradientUnits="userSpaceOnUse" x1="166.2689" y1="-0.2427" x2="151.9238" y2="26.8754" gradientTransform="matrix(0.8881 -0.4596 0.4596 0.8881 -70.4987 136.9065)">
			<stop  offset="0.1764" style="stop-color:#6191FF"/>
			<stop  offset="0.5436" style="stop-color:#3574FB"/>
			<stop  offset="1" style="stop-color:#3667ED"/>
		</linearGradient>
		<path class="st13" d="M78.6,70.5c0,0-0.1-0.1-0.1-0.1c-0.1-0.1-0.1-0.1-0.2-0.1c-0.1-0.1-0.2-0.1-0.3-0.2
			c-0.1-0.1-0.3-0.1-0.4-0.2c-0.1,0-0.1-0.1-0.2-0.1c-0.1-0.1-0.2-0.1-0.4-0.2c-0.6-0.3-1.2-0.5-1.8-0.9l0,0c0.1,0,0.2,0.1,0.2,0.1
			c0.7,0.4,1.4,0.9,2.1,1.3c0.2,0.1,0.4,0.2,0.5,0.3c0.1,0.1,0.2,0.1,0.3,0.2c0,0,0.1,0.1,0.1,0.1c0,0,0,0,0,0c0,0,0-0.1,0-0.1
			c0,0,0,0,0,0C78.6,70.6,78.6,70.5,78.6,70.5z"/>
		
			<linearGradient id="SVGID_14_" gradientUnits="userSpaceOnUse" x1="166.8316" y1="5.505773e-02" x2="152.4866" y2="27.1731" gradientTransform="matrix(0.8881 -0.4596 0.4596 0.8881 -70.4987 136.9065)">
			<stop  offset="0.1764" style="stop-color:#6191FF"/>
			<stop  offset="0.5436" style="stop-color:#3574FB"/>
			<stop  offset="1" style="stop-color:#3667ED"/>
		</linearGradient>
		<path class="st14" d="M80.2,79.9c0,0,0-0.1,0-0.1c0-0.1,0-0.1,0.1-0.2c0,0,0,0,0,0c0,0,0,0,0,0c0,0,0,0,0,0c0,0,0,0,0,0
			c-0.1,0.1-0.2,0.1-0.3,0.2c-0.4,0.3-0.8,0.6-1.3,0.8c-0.4,0.3-0.8,0.6-1.2,0.9c-0.4,0.3-0.8,0.6-1.2,0.9c-0.2,0.1-0.4,0.3-0.6,0.4
			c-0.1,0.1-0.2,0.1-0.3,0.2c-0.1,0.1-0.2,0.1-0.3,0.2c-0.1,0.1-0.2,0.1-0.3,0.2l0.1,0.1l5.3-2.7c0-0.1,0-0.1,0-0.2
			c0-0.1,0-0.2,0.1-0.3C80.1,80.1,80.1,80.1,80.2,79.9C80.2,80,80.2,80,80.2,79.9z"/>
		
			<linearGradient id="SVGID_15_" gradientUnits="userSpaceOnUse" x1="175.378" y1="4.576" x2="161.033" y2="31.694" gradientTransform="matrix(0.8881 -0.4596 0.4596 0.8881 -70.4987 136.9065)">
			<stop  offset="0.1764" style="stop-color:#6191FF"/>
			<stop  offset="0.5436" style="stop-color:#3574FB"/>
			<stop  offset="1" style="stop-color:#3667ED"/>
		</linearGradient>
		<path class="st15" d="M87.2,87.4c0-0.1-0.1-0.2-0.1-0.3c0,0,0,0,0,0c0,0,0-0.1-0.1-0.1c0,0,0,0,0-0.1c0,0,0,0,0,0c0,0,0,0,0,0
			c0,0.1,0,0.2-0.1,0.4c0,0.1,0,0.2,0,0.3c0,0.4-0.1,0.8-0.1,1.2c0,0,0,0,0,0c0,0.4,0,0.9,0,1.3c0,0.3,0,0.7,0,1l0.3,0.2l0.4-0.2
			c0-0.1,0-0.1,0-0.2c0-0.4,0-0.8,0-1.2c0-0.4,0-0.8-0.1-1.2c0-0.2,0-0.3-0.1-0.5c0,0,0-0.1,0-0.1C87.3,87.7,87.2,87.6,87.2,87.4z"
			/>
		
			<linearGradient id="SVGID_16_" gradientUnits="userSpaceOnUse" x1="185.2545" y1="9.8005" x2="170.9095" y2="36.9185" gradientTransform="matrix(0.8881 -0.4596 0.4596 0.8881 -70.4987 136.9065)">
			<stop  offset="0.1764" style="stop-color:#6191FF"/>
			<stop  offset="0.5436" style="stop-color:#3574FB"/>
			<stop  offset="1" style="stop-color:#3667ED"/>
		</linearGradient>
		<path class="st16" d="M99.2,83.8c-0.3-0.1-0.6-0.3-0.9-0.5c-0.1-0.1-0.2-0.1-0.3-0.2c0,0-0.1,0-0.1-0.1c-0.1-0.1-0.2-0.1-0.3-0.2
			c-0.1,0-0.2-0.1-0.2-0.1c-0.1-0.1-0.3-0.2-0.4-0.3c0,0-0.1,0-0.1-0.1c0,0,0,0,0,0c0,0,0,0,0,0c0,0,0,0,0,0c0,0,0,0,0,0
			c0,0,0,0,0,0c0,0-0.1,0.1-0.1,0.1c0,0,0,0,0,0c0,0,0,0,0,0c0,0,0,0,0.1,0c0,0,0.1,0.1,0.1,0.1c0.1,0.1,0.2,0.1,0.3,0.2
			c0.1,0.1,0.3,0.2,0.4,0.3c0.3,0.2,0.7,0.4,1,0.6c0.3,0.2,0.7,0.4,1,0.6c0.1,0.1,0.3,0.2,0.4,0.3l0.3-0.2l0-0.2
			C99.8,84.1,99.5,83.9,99.2,83.8z"/>
		
			<linearGradient id="SVGID_17_" gradientUnits="userSpaceOnUse" x1="174.5152" y1="7.2604" x2="162.6378" y2="29.7135" gradientTransform="matrix(0.8881 -0.4596 0.4596 0.8881 -70.4987 136.9065)">
			<stop  offset="0.1764" style="stop-color:#6191FF"/>
			<stop  offset="0.5436" style="stop-color:#3574FB"/>
			<stop  offset="1" style="stop-color:#3667ED"/>
		</linearGradient>
		<polygon class="st17" points="88.3,64.3 77.4,69.9 76.9,82.1 87.1,88.7 98,83.1 98.5,70.9 		"/>
		<polygon class="st10" points="87.9,66.1 83.8,68.2 83.6,72.8 87.5,75.3 91.6,73.2 91.8,68.6 		"/>
		<polygon class="st10" points="92.5,70.9 90.8,71.8 90.7,73.7 92.3,74.7 94,73.8 94.1,71.9 		"/>
	</g>
	<g>
		
			<linearGradient id="SVGID_18_" gradientUnits="userSpaceOnUse" x1="188.2397" y1="22.9066" x2="171.178" y2="55.1602" gradientTransform="matrix(0.8881 -0.4596 0.4596 0.8881 -70.4987 136.9065)">
			<stop  offset="0.1764" style="stop-color:#6191FF"/>
			<stop  offset="0.5436" style="stop-color:#3574FB"/>
			<stop  offset="1" style="stop-color:#3667ED"/>
		</linearGradient>
		<polygon class="st18" points="107.8,72.4 92.3,80.5 91.5,98 106.2,107.4 121.8,99.4 122.6,81.9 		"/>
		
			<linearGradient id="SVGID_19_" gradientUnits="userSpaceOnUse" x1="188.8589" y1="23.2341" x2="171.7972" y2="55.4878" gradientTransform="matrix(0.8881 -0.4596 0.4596 0.8881 -70.4987 136.9065)">
			<stop  offset="0.1764" style="stop-color:#6191FF"/>
			<stop  offset="0.5436" style="stop-color:#3574FB"/>
			<stop  offset="1" style="stop-color:#3667ED"/>
		</linearGradient>
		<path class="st19" d="M108,75.1c-0.1-0.9-0.1-1.7-0.1-2.6c0,0,0,0,0,0l-0.1-0.1l-0.2,0.1c0,0.6,0,1.3-0.1,1.9c0,0.6,0,1.2,0,1.7
			c0,0.2,0,0.4,0,0.6c0.1,0,0.2,0.1,0.3,0.1c0.1,0,0.2,0,0.3,0.1C108.1,76.3,108.1,75.7,108,75.1z"/>
		
			<linearGradient id="SVGID_20_" gradientUnits="userSpaceOnUse" x1="176.8876" y1="16.9015" x2="159.8259" y2="49.1551" gradientTransform="matrix(0.8881 -0.4596 0.4596 0.8881 -70.4987 136.9065)">
			<stop  offset="0.1764" style="stop-color:#6191FF"/>
			<stop  offset="0.5436" style="stop-color:#3574FB"/>
			<stop  offset="1" style="stop-color:#3667ED"/>
		</linearGradient>
		<path class="st20" d="M96.2,82.8c0-0.1-0.1-0.1-0.1-0.2c-0.1-0.1-0.1-0.1-0.2-0.2c-0.1-0.1-0.2-0.1-0.3-0.2
			c-0.1-0.1-0.3-0.2-0.5-0.2c-0.1,0-0.1-0.1-0.2-0.1c-0.1-0.1-0.3-0.1-0.4-0.2c-0.7-0.3-1.5-0.6-2.2-1.1l0,0
			c0.1,0.1,0.2,0.1,0.3,0.2c0.8,0.5,1.7,1,2.5,1.5c0.2,0.1,0.4,0.3,0.6,0.4c0.1,0.1,0.2,0.1,0.3,0.2c0,0,0.1,0.1,0.2,0.1
			c0,0,0,0,0,0c0,0,0-0.1,0-0.1c0,0,0,0,0,0C96.2,82.8,96.2,82.8,96.2,82.8z"/>
		
			<linearGradient id="SVGID_21_" gradientUnits="userSpaceOnUse" x1="177.557" y1="17.2556" x2="160.4953" y2="49.5092" gradientTransform="matrix(0.8881 -0.4596 0.4596 0.8881 -70.4987 136.9065)">
			<stop  offset="0.1764" style="stop-color:#6191FF"/>
			<stop  offset="0.5436" style="stop-color:#3574FB"/>
			<stop  offset="1" style="stop-color:#3667ED"/>
		</linearGradient>
		<path class="st21" d="M98.1,94c0-0.1,0-0.1,0-0.2c0-0.1,0.1-0.2,0.1-0.3c0,0,0,0,0,0c0,0,0,0,0,0c0,0,0,0,0,0c0,0,0,0,0,0
			c-0.1,0.1-0.3,0.2-0.4,0.2c-0.5,0.3-1,0.7-1.5,1c-0.5,0.3-1,0.7-1.5,1c-0.5,0.3-1,0.7-1.5,1c-0.2,0.2-0.5,0.3-0.7,0.5
			c-0.1,0.1-0.2,0.2-0.4,0.2c-0.1,0.1-0.2,0.2-0.4,0.2c-0.1,0.1-0.2,0.1-0.3,0.2l0.1,0.1l6.3-3.2c0-0.1,0-0.2,0-0.2
			c0-0.1,0.1-0.2,0.1-0.4c0-0.1,0-0.1,0-0.2C98.1,94.1,98.1,94,98.1,94z"/>
		
			<linearGradient id="SVGID_22_" gradientUnits="userSpaceOnUse" x1="187.7219" y1="22.6327" x2="170.6602" y2="54.8863" gradientTransform="matrix(0.8881 -0.4596 0.4596 0.8881 -70.4987 136.9065)">
			<stop  offset="0.1764" style="stop-color:#6191FF"/>
			<stop  offset="0.5436" style="stop-color:#3574FB"/>
			<stop  offset="1" style="stop-color:#3667ED"/>
		</linearGradient>
		<path class="st22" d="M106.4,102.9c0-0.1-0.1-0.3-0.1-0.4c0,0,0,0,0,0c0,0,0-0.1-0.1-0.1c0,0,0,0,0-0.1c0,0,0,0,0,0c0,0,0,0,0,0
			c0,0.1,0,0.3-0.1,0.4c0,0.1,0,0.2,0,0.3c-0.1,0.5-0.1,0.9-0.1,1.4c0,0,0,0,0,0c0,0.5,0,1,0,1.5c0,0.4,0,0.8,0,1.2l0.3,0.2l0.5-0.2
			c0-0.1,0-0.1,0-0.2c0-0.5,0-1,0-1.5c0-0.5,0-1-0.1-1.4c0-0.2-0.1-0.4-0.1-0.6c0,0,0-0.1,0-0.1
			C106.5,103.2,106.5,103.1,106.4,102.9z"/>
		
			<linearGradient id="SVGID_23_" gradientUnits="userSpaceOnUse" x1="199.4688" y1="28.8466" x2="182.4071" y2="61.1003" gradientTransform="matrix(0.8881 -0.4596 0.4596 0.8881 -70.4987 136.9065)">
			<stop  offset="0.1764" style="stop-color:#6191FF"/>
			<stop  offset="0.5436" style="stop-color:#3574FB"/>
			<stop  offset="1" style="stop-color:#3667ED"/>
		</linearGradient>
		<path class="st23" d="M120.6,98.6c-0.4-0.2-0.8-0.4-1.1-0.6c-0.1-0.1-0.2-0.1-0.3-0.2c0,0-0.1,0-0.1-0.1c-0.1-0.1-0.2-0.1-0.3-0.2
			c-0.1-0.1-0.2-0.1-0.3-0.2c-0.2-0.1-0.3-0.2-0.5-0.3c0,0-0.1-0.1-0.1-0.1c0,0,0,0-0.1,0c0,0,0,0-0.1,0c0,0,0,0,0,0c0,0,0,0,0,0
			c0,0,0,0,0,0c0,0-0.1,0.1-0.1,0.1c0,0,0,0,0,0c0,0,0,0,0,0c0,0,0,0,0.1,0c0,0,0.1,0.1,0.1,0.1c0.1,0.1,0.2,0.2,0.3,0.2
			c0.2,0.1,0.3,0.2,0.5,0.3c0.4,0.2,0.8,0.5,1.2,0.7c0.4,0.2,0.8,0.5,1.2,0.7c0.2,0.1,0.3,0.2,0.5,0.3l0.4-0.2l0-0.3
			C121.4,98.9,121,98.8,120.6,98.6z"/>
		
			<linearGradient id="SVGID_24_" gradientUnits="userSpaceOnUse" x1="186.6957" y1="25.8255" x2="172.569" y2="52.5308" gradientTransform="matrix(0.8881 -0.4596 0.4596 0.8881 -70.4987 136.9065)">
			<stop  offset="0.1764" style="stop-color:#6191FF"/>
			<stop  offset="0.5436" style="stop-color:#3574FB"/>
			<stop  offset="1" style="stop-color:#3667ED"/>
		</linearGradient>
		<polygon class="st24" points="107.7,75.4 94.8,82.1 94.2,96.6 106.4,104.4 119.2,97.8 119.9,83.3 		"/>
		<polygon class="st10" points="107.3,77.6 102.4,80.1 102.2,85.6 106.8,88.5 111.6,86 111.9,80.5 		"/>
		<polygon class="st10" points="112.7,83.2 110.7,84.3 110.6,86.5 112.5,87.8 114.5,86.7 114.6,84.5 		"/>
	</g>
	<g>
		
			<linearGradient id="SVGID_25_" gradientUnits="userSpaceOnUse" x1="92.7977" y1="-23.8984" x2="65.3595" y2="27.9711" gradientTransform="matrix(0.4184 -0.9083 0.9083 0.4184 43.0966 175.6414)">
			<stop  offset="0.1764" style="stop-color:#6191FF"/>
			<stop  offset="0.5436" style="stop-color:#3574FB"/>
			<stop  offset="1" style="stop-color:#3667ED"/>
		</linearGradient>
		<polygon class="st25" points="62.7,82.9 50.9,108.5 67.2,131.5 95.2,128.9 107,103.3 90.7,80.3 		"/>
		
			<linearGradient id="SVGID_26_" gradientUnits="userSpaceOnUse" x1="93.7935" y1="-23.3716" x2="66.3553" y2="28.4979" gradientTransform="matrix(0.4184 -0.9083 0.9083 0.4184 43.0966 175.6414)">
			<stop  offset="0.1764" style="stop-color:#6191FF"/>
			<stop  offset="0.5436" style="stop-color:#3574FB"/>
			<stop  offset="1" style="stop-color:#3667ED"/>
		</linearGradient>
		<path class="st26" d="M65.6,86.1c-0.9-1-1.8-2.1-2.7-3.2c0,0,0,0,0-0.1l-0.2,0l-0.1,0.3c0.6,0.8,1.2,1.7,1.8,2.5
			c0.6,0.7,1.1,1.5,1.7,2.3c0.2,0.3,0.4,0.5,0.5,0.8c0.2-0.1,0.3-0.1,0.5-0.2c0.2-0.1,0.3-0.1,0.4-0.2
			C66.9,87.5,66.2,86.8,65.6,86.1z"/>
		
			<linearGradient id="SVGID_27_" gradientUnits="userSpaceOnUse" x1="74.5415" y1="-33.5556" x2="47.1033" y2="18.3139" gradientTransform="matrix(0.4184 -0.9083 0.9083 0.4184 43.0966 175.6414)">
			<stop  offset="0.1764" style="stop-color:#6191FF"/>
			<stop  offset="0.5436" style="stop-color:#3574FB"/>
			<stop  offset="1" style="stop-color:#3667ED"/>
		</linearGradient>
		<path class="st27" d="M58.1,107.5c-0.1,0-0.2-0.1-0.3-0.1c-0.1,0-0.3,0-0.4,0c-0.2,0-0.4,0-0.6,0.1c-0.3,0-0.5,0.1-0.8,0.1
			c-0.1,0-0.3,0.1-0.4,0.1c-0.2,0.1-0.5,0.1-0.7,0.2c-1.2,0.3-2.5,0.6-3.8,0.8l0,0c0.2,0,0.3,0,0.5-0.1c1.6-0.2,3.2-0.4,4.7-0.5
			c0.4,0,0.8-0.1,1.2-0.1c0.2,0,0.4,0,0.6-0.1c0.1,0,0.2,0,0.3,0c0,0,0,0,0,0c0-0.1-0.1-0.1-0.1-0.2c0,0,0,0,0,0
			C58.2,107.6,58.2,107.5,58.1,107.5z"/>
		
			<linearGradient id="SVGID_28_" gradientUnits="userSpaceOnUse" x1="75.618" y1="-32.9862" x2="48.1798" y2="18.8833" gradientTransform="matrix(0.4184 -0.9083 0.9083 0.4184 43.0966 175.6414)">
			<stop  offset="0.1764" style="stop-color:#6191FF"/>
			<stop  offset="0.5436" style="stop-color:#3574FB"/>
			<stop  offset="1" style="stop-color:#3667ED"/>
		</linearGradient>
		<path class="st28" d="M71.6,119.9c0-0.1-0.1-0.2-0.1-0.2c-0.1-0.1-0.1-0.3-0.1-0.4c0,0,0-0.1,0-0.1c0,0,0,0,0,0c0,0,0,0,0,0
			c0,0,0,0.1,0,0.1c-0.1,0.2-0.2,0.5-0.2,0.7c-0.3,0.9-0.6,1.8-0.9,2.7c-0.3,0.9-0.6,1.8-0.9,2.8c-0.3,0.9-0.6,1.8-0.9,2.7
			c-0.1,0.5-0.3,0.9-0.5,1.4c-0.1,0.2-0.2,0.5-0.2,0.7c-0.1,0.2-0.1,0.5-0.2,0.7c-0.1,0.2-0.1,0.4-0.2,0.6l0.3,0l4.7-10.3
			c-0.1-0.1-0.2-0.2-0.2-0.3c-0.1-0.2-0.2-0.4-0.3-0.5c0-0.1-0.1-0.1-0.1-0.2C71.6,120,71.6,119.9,71.6,119.9z"/>
		
			<linearGradient id="SVGID_29_" gradientUnits="userSpaceOnUse" x1="91.9649" y1="-24.3389" x2="64.5267" y2="27.5306" gradientTransform="matrix(0.4184 -0.9083 0.9083 0.4184 43.0966 175.6414)">
			<stop  offset="0.1764" style="stop-color:#6191FF"/>
			<stop  offset="0.5436" style="stop-color:#3574FB"/>
			<stop  offset="1" style="stop-color:#3667ED"/>
		</linearGradient>
		<path class="st29" d="M91,122.9c-0.2-0.1-0.4-0.3-0.6-0.4c0,0,0,0,0,0c-0.1,0-0.1-0.1-0.2-0.1c0,0-0.1,0-0.1-0.1c0,0,0,0,0,0
			c0,0,0,0,0,0.1c0.1,0.2,0.2,0.4,0.3,0.6c0.1,0.2,0.2,0.3,0.3,0.5c0.4,0.6,0.8,1.3,1.2,1.9c0,0,0,0,0,0c0.5,0.7,1,1.3,1.5,2
			c0.4,0.5,0.8,1,1.3,1.5l0.6-0.1l0.4-0.8c-0.1-0.1-0.1-0.2-0.2-0.2c-0.5-0.6-0.9-1.3-1.4-1.9c-0.5-0.6-1-1.2-1.5-1.7
			c-0.2-0.2-0.4-0.4-0.7-0.6c-0.1-0.1-0.1-0.1-0.2-0.2C91.4,123.3,91.2,123.1,91,122.9z"/>
		
			<linearGradient id="SVGID_30_" gradientUnits="userSpaceOnUse" x1="110.8561" y1="-14.3458" x2="83.4178" y2="37.5237" gradientTransform="matrix(0.4184 -0.9083 0.9083 0.4184 43.0966 175.6414)">
			<stop  offset="0.1764" style="stop-color:#6191FF"/>
			<stop  offset="0.5436" style="stop-color:#3574FB"/>
			<stop  offset="1" style="stop-color:#3667ED"/>
		</linearGradient>
		<path class="st30" d="M104.8,103.4c-0.7,0.2-1.3,0.3-2,0.4c-0.2,0-0.4,0-0.6,0.1c-0.1,0-0.2,0-0.2,0c-0.2,0-0.4,0-0.6,0.1
			c-0.2,0-0.3,0.1-0.5,0.1c-0.3,0-0.6,0-0.9,0c-0.1,0-0.1,0-0.2,0c0,0-0.1,0-0.1,0c0,0-0.1,0-0.1,0c0,0,0,0,0,0c0,0,0,0,0,0.1
			c0,0,0,0.1,0,0.1c0,0.1,0,0.1,0,0.2c0,0,0,0,0,0c0,0,0,0,0,0c0,0,0.1,0,0.1,0c0.1,0,0.2,0,0.2,0c0.2,0,0.5,0,0.7,0
			c0.3,0,0.7,0,1-0.1c0.7-0.1,1.5-0.2,2.2-0.3c0.7-0.1,1.4-0.2,2.2-0.2c0.3,0,0.6,0,0.9,0l0.3-0.6l-0.3-0.4
			C106.1,103.1,105.4,103.3,104.8,103.4z"/>
		
			<linearGradient id="SVGID_31_" gradientUnits="userSpaceOnUse" x1="90.3146" y1="-19.2042" x2="67.5964" y2="23.7425" gradientTransform="matrix(0.4184 -0.9083 0.9083 0.4184 43.0966 175.6414)">
			<stop  offset="0.1764" style="stop-color:#6191FF"/>
			<stop  offset="0.5436" style="stop-color:#3574FB"/>
			<stop  offset="1" style="stop-color:#3667ED"/>
		</linearGradient>
		<polygon class="st31" points="65.5,86.8 55.7,108 69.2,127.1 92.4,124.9 102.2,103.7 88.7,84.7 		"/>
		<polygon class="st10" points="67.1,90 63.4,98 68.5,105.1 77.2,104.3 80.9,96.4 75.8,89.2 		"/>
		<polygon class="st10" points="79.5,91.8 78,95.1 80.1,98.1 83.7,97.7 85.2,94.4 83.1,91.5 		"/>
	</g>
	<g>
		
			<linearGradient id="SVGID_32_" gradientUnits="userSpaceOnUse" x1="-78.6599" y1="156.4477" x2="-102.205" y2="200.9576" gradientTransform="matrix(0.7788 -0.6273 0.6273 0.7788 59.5145 -79.8527)">
			<stop  offset="0.1764" style="stop-color:#6191FF"/>
			<stop  offset="0.5436" style="stop-color:#3574FB"/>
			<stop  offset="1" style="stop-color:#3667ED"/>
		</linearGradient>
		<polygon class="st32" points="97.7,93.5 78.9,108.6 82.6,132.5 105.2,141.2 124,126.1 120.3,102.2 		"/>
		
			<linearGradient id="SVGID_33_" gradientUnits="userSpaceOnUse" x1="-77.8054" y1="156.8998" x2="-101.3505" y2="201.4096" gradientTransform="matrix(0.7788 -0.6273 0.6273 0.7788 59.5145 -79.8527)">
			<stop  offset="0.1764" style="stop-color:#6191FF"/>
			<stop  offset="0.5436" style="stop-color:#3574FB"/>
			<stop  offset="1" style="stop-color:#3667ED"/>
		</linearGradient>
		<path class="st33" d="M98.7,97c-0.3-1.1-0.6-2.3-0.9-3.5c0,0,0,0,0-0.1l-0.1-0.1l-0.2,0.2c0.1,0.9,0.3,1.7,0.5,2.6
			c0.1,0.8,0.3,1.6,0.4,2.4c0,0.3,0.1,0.5,0.1,0.8c0.2,0,0.3,0,0.5,0c0.1,0,0.3,0,0.4,0C99.2,98.6,98.9,97.8,98.7,97z"/>
		
			<linearGradient id="SVGID_34_" gradientUnits="userSpaceOnUse" x1="-94.3258" y1="148.1607" x2="-117.8708" y2="192.6706" gradientTransform="matrix(0.7788 -0.6273 0.6273 0.7788 59.5145 -79.8527)">
			<stop  offset="0.1764" style="stop-color:#6191FF"/>
			<stop  offset="0.5436" style="stop-color:#3574FB"/>
			<stop  offset="1" style="stop-color:#3667ED"/>
		</linearGradient>
		<path class="st34" d="M84.8,110.6c-0.1-0.1-0.1-0.1-0.2-0.2c-0.1-0.1-0.2-0.1-0.3-0.2c-0.2-0.1-0.3-0.1-0.5-0.2
			c-0.2-0.1-0.4-0.1-0.7-0.2c-0.1,0-0.2-0.1-0.3-0.1c-0.2-0.1-0.4-0.1-0.6-0.2c-1.1-0.2-2.2-0.5-3.2-0.9l0,0
			c0.1,0.1,0.3,0.1,0.4,0.2c1.3,0.5,2.6,0.9,3.8,1.4c0.3,0.1,0.6,0.2,1,0.4c0.2,0.1,0.3,0.1,0.5,0.2c0.1,0,0.2,0.1,0.2,0.1
			c0,0,0,0,0,0c0-0.1,0-0.1,0-0.2c0,0,0,0,0,0C84.9,110.7,84.8,110.7,84.8,110.6z"/>
		
			<linearGradient id="SVGID_35_" gradientUnits="userSpaceOnUse" x1="-93.402" y1="148.6494" x2="-116.9471" y2="193.1593" gradientTransform="matrix(0.7788 -0.6273 0.6273 0.7788 59.5145 -79.8527)">
			<stop  offset="0.1764" style="stop-color:#6191FF"/>
			<stop  offset="0.5436" style="stop-color:#3574FB"/>
			<stop  offset="1" style="stop-color:#3667ED"/>
		</linearGradient>
		<path class="st35" d="M90.4,125.3c0-0.1,0-0.2,0-0.2c0-0.1,0-0.3,0.1-0.4c0,0,0,0,0-0.1c0,0,0,0,0,0c0,0,0,0,0,0c0,0,0,0-0.1,0
			c-0.1,0.1-0.3,0.3-0.4,0.4c-0.6,0.6-1.2,1.2-1.8,1.8c-0.6,0.6-1.2,1.2-1.7,1.8c-0.6,0.6-1.1,1.2-1.7,1.8c-0.3,0.3-0.6,0.6-0.9,0.9
			c-0.1,0.1-0.3,0.3-0.4,0.4c-0.1,0.1-0.3,0.3-0.4,0.4c-0.1,0.1-0.3,0.2-0.4,0.4l0.2,0.1l7.6-6.1c0-0.1,0-0.2,0-0.3
			c0-0.2,0-0.4,0-0.5c0-0.1,0-0.1,0-0.2C90.4,125.4,90.4,125.3,90.4,125.3z"/>
		
			<linearGradient id="SVGID_36_" gradientUnits="userSpaceOnUse" x1="-79.3746" y1="156.0697" x2="-102.9196" y2="200.5796" gradientTransform="matrix(0.7788 -0.6273 0.6273 0.7788 59.5145 -79.8527)">
			<stop  offset="0.1764" style="stop-color:#6191FF"/>
			<stop  offset="0.5436" style="stop-color:#3574FB"/>
			<stop  offset="1" style="stop-color:#3667ED"/>
		</linearGradient>
		<path class="st36" d="M104.2,135c-0.1-0.2-0.2-0.3-0.3-0.5c0,0,0,0,0,0c0-0.1-0.1-0.1-0.1-0.2c0,0,0-0.1-0.1-0.1c0,0,0,0,0,0
			c0,0,0,0,0,0.1c0,0.2,0,0.4,0,0.6c0,0.2,0,0.3,0,0.5c0,0.6,0.1,1.3,0.2,1.9c0,0,0,0,0,0c0.1,0.7,0.2,1.4,0.4,2.1
			c0.1,0.6,0.2,1.1,0.4,1.7l0.5,0.2l0.6-0.5c0-0.1,0-0.2,0-0.3c-0.1-0.7-0.2-1.3-0.4-2c-0.1-0.6-0.3-1.3-0.5-1.9
			c-0.1-0.2-0.2-0.5-0.3-0.7c0-0.1-0.1-0.1-0.1-0.2C104.4,135.5,104.3,135.2,104.2,135z"/>
		
			<linearGradient id="SVGID_37_" gradientUnits="userSpaceOnUse" x1="-63.1638" y1="164.6449" x2="-86.7089" y2="209.1548" gradientTransform="matrix(0.7788 -0.6273 0.6273 0.7788 59.5145 -79.8527)">
			<stop  offset="0.1764" style="stop-color:#6191FF"/>
			<stop  offset="0.5436" style="stop-color:#3574FB"/>
			<stop  offset="1" style="stop-color:#3667ED"/>
		</linearGradient>
		<path class="st37" d="M122.2,125.3c-0.6-0.1-1.1-0.3-1.7-0.4c-0.2-0.1-0.3-0.1-0.5-0.2c-0.1,0-0.1,0-0.2-0.1
			c-0.2-0.1-0.3-0.1-0.5-0.2c-0.1-0.1-0.3-0.1-0.4-0.1c-0.3-0.1-0.5-0.2-0.7-0.3c-0.1,0-0.1-0.1-0.2-0.1c0,0-0.1,0-0.1,0
			c0,0-0.1,0-0.1,0c0,0,0,0,0,0c0,0,0,0,0,0c0,0,0,0,0,0.1c0,0.1-0.1,0.1-0.1,0.2c0,0,0,0,0,0c0,0,0,0,0,0c0,0,0.1,0,0.1,0
			c0.1,0,0.1,0.1,0.2,0.1c0.2,0.1,0.4,0.2,0.5,0.2c0.3,0.1,0.5,0.2,0.8,0.3c0.6,0.2,1.2,0.4,1.8,0.6c0.6,0.2,1.2,0.4,1.8,0.6
			c0.2,0.1,0.5,0.2,0.7,0.3l0.4-0.4l-0.1-0.4C123.3,125.6,122.8,125.4,122.2,125.3z"/>
		
			<linearGradient id="SVGID_38_" gradientUnits="userSpaceOnUse" x1="-80.7907" y1="160.4758" x2="-100.2855" y2="197.3289" gradientTransform="matrix(0.7788 -0.6273 0.6273 0.7788 59.5145 -79.8527)">
			<stop  offset="0.1764" style="stop-color:#6191FF"/>
			<stop  offset="0.5436" style="stop-color:#3574FB"/>
			<stop  offset="1" style="stop-color:#3667ED"/>
		</linearGradient>
		<polygon class="st38" points="98.4,97.6 82.8,110.1 85.9,129.9 104.5,137.1 120.1,124.6 117,104.8 		"/>
		<polygon class="st10" points="98.4,100.6 92.5,105.3 93.7,112.8 100.7,115.5 106.5,110.7 105.4,103.3 		"/>
		<polygon class="st10" points="107.2,106.7 104.8,108.7 105.3,111.8 108.2,112.9 110.6,110.9 110.1,107.9 		"/>
	</g>
	<g>
		
			<linearGradient id="SVGID_39_" gradientUnits="userSpaceOnUse" x1="-40.6246" y1="-92.6273" x2="-73.7171" y2="-30.069" gradientTransform="matrix(-0.1422 -0.9898 0.9898 -0.1422 91.7303 66.0006)">
			<stop  offset="0.1764" style="stop-color:#6191FF"/>
			<stop  offset="0.5436" style="stop-color:#3574FB"/>
			<stop  offset="1" style="stop-color:#3667ED"/>
		</linearGradient>
		<polygon class="st39" points="9.3,119.3 14.2,152.9 45.7,165.6 72.4,144.6 67.6,110.9 36,98.3 		"/>
		
			<linearGradient id="SVGID_40_" gradientUnits="userSpaceOnUse" x1="-39.4236" y1="-91.992" x2="-72.5161" y2="-29.4337" gradientTransform="matrix(-0.1422 -0.9898 0.9898 -0.1422 91.7303 66.0006)">
			<stop  offset="0.1764" style="stop-color:#6191FF"/>
			<stop  offset="0.5436" style="stop-color:#3574FB"/>
			<stop  offset="1" style="stop-color:#3667ED"/>
		</linearGradient>
		<path class="st40" d="M14.4,120.6c-1.6-0.4-3.2-0.9-4.8-1.4c0,0-0.1,0-0.1,0l-0.2,0.1l0.1,0.4c1.1,0.5,2.3,0.9,3.5,1.3
			c1.1,0.4,2.1,0.8,3.2,1.2c0.3,0.1,0.7,0.3,1,0.4c0.1-0.2,0.3-0.3,0.4-0.5c0.1-0.2,0.2-0.3,0.3-0.5C16.6,121.3,15.5,121,14.4,120.6
			z"/>
		
			<linearGradient id="SVGID_41_" gradientUnits="userSpaceOnUse" x1="-62.6429" y1="-104.2747" x2="-95.7353" y2="-41.7163" gradientTransform="matrix(-0.1422 -0.9898 0.9898 -0.1422 91.7303 66.0006)">
			<stop  offset="0.1764" style="stop-color:#6191FF"/>
			<stop  offset="0.5436" style="stop-color:#3574FB"/>
			<stop  offset="1" style="stop-color:#3667ED"/>
		</linearGradient>
		<path class="st41" d="M20.8,147.3c-0.1,0-0.2,0.1-0.4,0.1c-0.2,0.1-0.3,0.2-0.5,0.3c-0.2,0.1-0.4,0.3-0.5,0.4
			c-0.2,0.2-0.5,0.4-0.7,0.7c-0.1,0.1-0.2,0.2-0.3,0.3c-0.2,0.2-0.4,0.4-0.6,0.6c-1.1,1.1-2.1,2.3-3.3,3.3l0,0
			c0.2-0.1,0.3-0.3,0.5-0.4c1.5-1.2,3-2.4,4.4-3.6c0.4-0.3,0.7-0.6,1.1-0.9c0.2-0.2,0.4-0.3,0.6-0.5c0.1,0,0.2-0.2,0.3-0.2
			c0-0.1,0,0,0-0.1c-0.1-0.1-0.2-0.1-0.2-0.1c0,0,0,0,0,0C21,147.2,20.9,147.2,20.8,147.3z"/>
		
			<linearGradient id="SVGID_42_" gradientUnits="userSpaceOnUse" x1="-61.3445" y1="-103.5879" x2="-94.437" y2="-41.0295" gradientTransform="matrix(-0.1422 -0.9898 0.9898 -0.1422 91.7303 66.0006)">
			<stop  offset="0.1764" style="stop-color:#6191FF"/>
			<stop  offset="0.5436" style="stop-color:#3574FB"/>
			<stop  offset="1" style="stop-color:#3667ED"/>
		</linearGradient>
		<path class="st42" d="M42.6,150.9c-0.1-0.1-0.2-0.1-0.3-0.2c-0.1-0.1-0.3-0.2-0.4-0.3c0,0,0,0-0.1-0.1c0,0,0,0,0,0c0,0,0,0,0,0
			c0,0,0,0.1,0,0.1c0.1,0.3,0.1,0.6,0.2,0.8c0.3,1.1,0.6,2.3,0.9,3.4c0.3,1.1,0.6,2.2,0.9,3.4c0.3,1.1,0.6,2.2,0.9,3.4
			c0.2,0.6,0.3,1.1,0.4,1.7c0.1,0.3,0.1,0.6,0.2,0.8c0.1,0.3,0.2,0.6,0.2,0.8c0.1,0.2,0.1,0.5,0.1,0.7l0.3-0.2l-1.9-13.5
			c-0.1-0.1-0.3-0.1-0.4-0.2c-0.2-0.1-0.4-0.3-0.6-0.4c-0.1-0.1-0.2-0.1-0.3-0.1C42.7,151,42.7,151,42.6,150.9z"/>
		
			<linearGradient id="SVGID_43_" gradientUnits="userSpaceOnUse" x1="-41.629" y1="-93.1587" x2="-74.7215" y2="-30.6003" gradientTransform="matrix(-0.1422 -0.9898 0.9898 -0.1422 91.7303 66.0006)">
			<stop  offset="0.1764" style="stop-color:#6191FF"/>
			<stop  offset="0.5436" style="stop-color:#3574FB"/>
			<stop  offset="1" style="stop-color:#3667ED"/>
		</linearGradient>
		<path class="st43" d="M64.2,141.3c-0.3,0-0.6,0-0.8,0c0,0,0,0,0,0c-0.1,0-0.2,0-0.3,0c-0.1,0-0.1,0-0.2,0c0,0-0.1,0-0.1,0
			c0,0,0.1,0,0.1,0c0.2,0.1,0.5,0.3,0.8,0.4c0.2,0.1,0.4,0.2,0.6,0.3c0.8,0.4,1.6,0.8,2.5,1.1c0,0,0,0,0,0c0.9,0.4,1.8,0.7,2.8,1.1
			c0.8,0.3,1.5,0.5,2.3,0.7l0.6-0.4l-0.1-1c-0.1,0-0.2-0.1-0.3-0.1c-0.9-0.3-1.8-0.7-2.7-1c-0.9-0.3-1.8-0.6-2.7-0.8
			c-0.4-0.1-0.7-0.1-1.1-0.2c-0.1,0-0.2,0-0.3,0C64.9,141.4,64.6,141.3,64.2,141.3z"/>
		
			<linearGradient id="SVGID_44_" gradientUnits="userSpaceOnUse" x1="-18.845" y1="-81.1062" x2="-51.9374" y2="-18.5479" gradientTransform="matrix(-0.1422 -0.9898 0.9898 -0.1422 91.7303 66.0006)">
			<stop  offset="0.1764" style="stop-color:#6191FF"/>
			<stop  offset="0.5436" style="stop-color:#3574FB"/>
			<stop  offset="1" style="stop-color:#3667ED"/>
		</linearGradient>
		<path class="st44" d="M65.4,112.5c-0.6,0.6-1.1,1.2-1.7,1.7c-0.2,0.2-0.4,0.3-0.6,0.5c-0.1,0.1-0.1,0.1-0.2,0.2
			c-0.2,0.2-0.4,0.3-0.5,0.4c-0.2,0.1-0.3,0.3-0.5,0.4c-0.3,0.2-0.6,0.4-0.9,0.6c-0.1,0-0.2,0.1-0.2,0.1c0,0-0.1,0-0.1,0.1
			c0,0-0.1,0-0.1,0.1c0,0,0,0,0,0.1c0,0,0,0.1,0,0.1c0,0,0,0.1,0,0.1c0,0.1,0.1,0.2,0.1,0.2c0,0,0,0,0,0.1c0,0,0,0,0,0
			c0,0,0.1-0.1,0.1-0.1c0.1-0.1,0.2-0.1,0.2-0.2c0.2-0.2,0.4-0.3,0.7-0.5c0.3-0.2,0.6-0.5,1-0.7c0.7-0.6,1.4-1.1,2.1-1.7
			c0.7-0.6,1.3-1.1,2-1.7c0.3-0.2,0.6-0.4,0.9-0.6l-0.1-0.8l-0.5-0.2C66.5,111.3,66,111.9,65.4,112.5z"/>
		
			<linearGradient id="SVGID_45_" gradientUnits="userSpaceOnUse" x1="-43.6194" y1="-86.9659" x2="-71.0192" y2="-35.1691" gradientTransform="matrix(-0.1422 -0.9898 0.9898 -0.1422 91.7303 66.0006)">
			<stop  offset="0.1764" style="stop-color:#6191FF"/>
			<stop  offset="0.5436" style="stop-color:#3574FB"/>
			<stop  offset="1" style="stop-color:#3667ED"/>
		</linearGradient>
		<polygon class="st45" points="14.8,121.5 18.8,149.3 44.9,159.8 67,142.4 63,114.6 36.9,104.1 		"/>
		<polygon class="st10" points="18.4,123.6 19.9,134.1 29.8,138.1 38.1,131.5 36.6,121 26.7,117.1 		"/>
		<polygon class="st10" points="32.2,117.3 32.8,121.7 36.9,123.3 40.3,120.6 39.7,116.3 35.7,114.6 		"/>
	</g>
	<g>
		
			<linearGradient id="SVGID_46_" gradientUnits="userSpaceOnUse" x1="41.628" y1="106.2409" x2="17.768" y2="151.346" gradientTransform="matrix(0.8565 -0.5161 0.5161 0.8565 43.0904 10.3113)">
			<stop  offset="0.1764" style="stop-color:#6191FF"/>
			<stop  offset="0.5436" style="stop-color:#3574FB"/>
			<stop  offset="1" style="stop-color:#3667ED"/>
		</linearGradient>
		<polygon class="st46" points="134.6,82.1 113.6,94.8 114.1,119.3 135.5,131.1 156.5,118.5 156,94 		"/>
		
			<linearGradient id="SVGID_47_" gradientUnits="userSpaceOnUse" x1="42.4939" y1="106.699" x2="18.634" y2="151.8041" gradientTransform="matrix(0.8565 -0.5161 0.5161 0.8565 43.0904 10.3113)">
			<stop  offset="0.1764" style="stop-color:#6191FF"/>
			<stop  offset="0.5436" style="stop-color:#3574FB"/>
			<stop  offset="1" style="stop-color:#3667ED"/>
		</linearGradient>
		<path class="st47" d="M135.1,85.9c-0.2-1.2-0.3-2.4-0.4-3.6c0,0,0,0,0-0.1l-0.1-0.1l-0.2,0.2c0,0.9,0.1,1.8,0.1,2.7
			c0,0.8,0.1,1.6,0.1,2.4c0,0.3,0,0.5,0,0.8c0.2,0,0.3,0.1,0.5,0.1c0.1,0,0.3,0,0.4,0.1C135.4,87.5,135.2,86.7,135.1,85.9z"/>
		
			<linearGradient id="SVGID_48_" gradientUnits="userSpaceOnUse" x1="25.7526" y1="97.8431" x2="1.8927" y2="142.9482" gradientTransform="matrix(0.8565 -0.5161 0.5161 0.8565 43.0904 10.3113)">
			<stop  offset="0.1764" style="stop-color:#6191FF"/>
			<stop  offset="0.5436" style="stop-color:#3574FB"/>
			<stop  offset="1" style="stop-color:#3667ED"/>
		</linearGradient>
		<path class="st48" d="M119.3,97.6c-0.1-0.1-0.1-0.1-0.2-0.2c-0.1-0.1-0.2-0.2-0.3-0.2c-0.1-0.1-0.3-0.2-0.4-0.2
			c-0.2-0.1-0.4-0.2-0.7-0.3c-0.1,0-0.2-0.1-0.3-0.1c-0.2-0.1-0.4-0.2-0.6-0.2c-1-0.4-2.1-0.8-3.1-1.3l0,0c0.1,0.1,0.3,0.1,0.4,0.2
			c1.2,0.6,2.4,1.3,3.7,1.9c0.3,0.2,0.6,0.3,0.9,0.5c0.2,0.1,0.3,0.2,0.5,0.3c0,0,0.2,0.1,0.2,0.1c0,0,0,0,0,0c0-0.1,0-0.1,0-0.2
			c0,0,0,0,0,0C119.3,97.7,119.3,97.7,119.3,97.6z"/>
		
			<linearGradient id="SVGID_49_" gradientUnits="userSpaceOnUse" x1="26.6887" y1="98.3383" x2="2.8288" y2="143.4434" gradientTransform="matrix(0.8565 -0.5161 0.5161 0.8565 43.0904 10.3113)">
			<stop  offset="0.1764" style="stop-color:#6191FF"/>
			<stop  offset="0.5436" style="stop-color:#3574FB"/>
			<stop  offset="1" style="stop-color:#3667ED"/>
		</linearGradient>
		<path class="st49" d="M122.9,113.1c0-0.1,0-0.2,0-0.2c0-0.1,0.1-0.2,0.1-0.4c0,0,0,0,0-0.1c0,0,0,0,0,0c0,0,0,0,0,0c0,0,0,0-0.1,0
			c-0.2,0.1-0.3,0.2-0.5,0.4c-0.7,0.5-1.3,1-2,1.5c-0.7,0.5-1.3,1-2,1.6c-0.7,0.5-1.3,1-2,1.6c-0.3,0.3-0.7,0.5-1,0.8
			c-0.2,0.1-0.3,0.3-0.5,0.4c-0.2,0.1-0.3,0.3-0.5,0.4c-0.1,0.1-0.3,0.2-0.4,0.3l0.2,0.1l8.4-5.1c0-0.1,0-0.2,0-0.3
			c0-0.2,0-0.4,0.1-0.5c0-0.1,0-0.2,0-0.2C122.9,113.2,122.9,113.2,122.9,113.1z"/>
		
			<linearGradient id="SVGID_50_" gradientUnits="userSpaceOnUse" x1="40.9038" y1="105.8578" x2="17.0438" y2="150.9629" gradientTransform="matrix(0.8565 -0.5161 0.5161 0.8565 43.0904 10.3113)">
			<stop  offset="0.1764" style="stop-color:#6191FF"/>
			<stop  offset="0.5436" style="stop-color:#3574FB"/>
			<stop  offset="1" style="stop-color:#3667ED"/>
		</linearGradient>
		<path class="st50" d="M135.4,124.8c-0.1-0.2-0.1-0.4-0.2-0.6c0,0,0,0,0,0c0-0.1-0.1-0.1-0.1-0.2c0,0,0-0.1-0.1-0.1c0,0,0,0,0,0
			c0,0,0,0,0,0.1c0,0.2,0,0.4-0.1,0.6c0,0.2,0,0.3,0,0.5c0,0.7-0.1,1.3-0.1,2c0,0,0,0,0,0c0,0.7,0,1.4,0.1,2.2
			c0,0.6,0.1,1.1,0.2,1.7l0.5,0.3l0.6-0.4c0-0.1,0-0.2,0-0.3c0-0.7,0-1.4-0.1-2.1c0-0.7-0.1-1.3-0.2-2c0-0.3-0.1-0.5-0.2-0.8
			c0-0.1,0-0.1-0.1-0.2C135.5,125.2,135.5,125,135.4,124.8z"/>
		
			<linearGradient id="SVGID_51_" gradientUnits="userSpaceOnUse" x1="57.3313" y1="114.5477" x2="33.4713" y2="159.6528" gradientTransform="matrix(0.8565 -0.5161 0.5161 0.8565 43.0904 10.3113)">
			<stop  offset="0.1764" style="stop-color:#6191FF"/>
			<stop  offset="0.5436" style="stop-color:#3574FB"/>
			<stop  offset="1" style="stop-color:#3667ED"/>
		</linearGradient>
		<path class="st51" d="M154.8,117.5c-0.5-0.2-1.1-0.4-1.6-0.7c-0.2-0.1-0.3-0.2-0.5-0.2c-0.1,0-0.1-0.1-0.2-0.1
			c-0.1-0.1-0.3-0.2-0.4-0.2c-0.1-0.1-0.3-0.1-0.4-0.2c-0.2-0.1-0.5-0.3-0.7-0.4c-0.1,0-0.1-0.1-0.2-0.1c0,0-0.1,0-0.1-0.1
			c0,0-0.1,0-0.1-0.1c0,0,0,0-0.1,0c0,0,0,0,0,0c0,0,0,0-0.1,0.1c0,0-0.1,0.1-0.1,0.1c0,0,0,0,0,0c0,0,0,0,0,0c0,0,0.1,0,0.1,0.1
			c0.1,0,0.1,0.1,0.2,0.1c0.2,0.1,0.3,0.2,0.5,0.3c0.2,0.1,0.5,0.3,0.8,0.4c0.6,0.3,1.1,0.6,1.7,0.9c0.6,0.3,1.1,0.6,1.7,0.9
			c0.2,0.1,0.5,0.3,0.7,0.4l0.5-0.3l0-0.4C155.9,117.9,155.4,117.7,154.8,117.5z"/>
		
			<linearGradient id="SVGID_52_" gradientUnits="userSpaceOnUse" x1="39.4687" y1="110.3229" x2="19.7132" y2="147.6688" gradientTransform="matrix(0.8565 -0.5161 0.5161 0.8565 43.0904 10.3113)">
			<stop  offset="0.1764" style="stop-color:#6191FF"/>
			<stop  offset="0.5436" style="stop-color:#3574FB"/>
			<stop  offset="1" style="stop-color:#3667ED"/>
		</linearGradient>
		<polygon class="st52" points="134.7,86.4 117.3,96.8 117.7,117.1 135.4,126.9 152.8,116.4 152.4,96.2 		"/>
		<polygon class="st10" points="134.3,89.4 127.7,93.3 127.9,101 134.6,104.7 141.1,100.7 141,93.1 		"/>
		<polygon class="st10" points="142.3,96.8 139.6,98.4 139.7,101.6 142.5,103.1 145.2,101.5 145.1,98.3 		"/>
	</g>
	<g>
		
			<linearGradient id="SVGID_53_" gradientUnits="userSpaceOnUse" x1="271.2589" y1="75.2413" x2="243.8207" y2="127.1109" gradientTransform="matrix(0.8399 -0.5427 0.5427 0.8399 -147.2573 193.1075)">
			<stop  offset="0.1764" style="stop-color:#6191FF"/>
			<stop  offset="0.5436" style="stop-color:#3574FB"/>
			<stop  offset="1" style="stop-color:#3667ED"/>
		</linearGradient>
		<polygon class="st53" points="122.7,111.7 99,127 100.4,155.1 125.5,168 149.2,152.7 147.8,124.6 		"/>
		
			<linearGradient id="SVGID_54_" gradientUnits="userSpaceOnUse" x1="272.2547" y1="75.7681" x2="244.8165" y2="127.6376" gradientTransform="matrix(0.8399 -0.5427 0.5427 0.8399 -147.2573 193.1075)">
			<stop  offset="0.1764" style="stop-color:#6191FF"/>
			<stop  offset="0.5436" style="stop-color:#3574FB"/>
			<stop  offset="1" style="stop-color:#3667ED"/>
		</linearGradient>
		<path class="st54" d="M123.4,116c-0.2-1.4-0.4-2.7-0.6-4.1c0,0,0,0,0-0.1l-0.1-0.1l-0.3,0.2c0.1,1,0.1,2,0.2,3.1
			c0.1,0.9,0.2,1.9,0.2,2.8c0,0.3,0,0.6,0,0.9c0.2,0,0.4,0.1,0.5,0.1c0.2,0,0.3,0,0.5,0C123.7,117.9,123.6,116.9,123.4,116z"/>
		
			<linearGradient id="SVGID_55_" gradientUnits="userSpaceOnUse" x1="253.0028" y1="65.5841" x2="225.5645" y2="117.4536" gradientTransform="matrix(0.8399 -0.5427 0.5427 0.8399 -147.2573 193.1075)">
			<stop  offset="0.1764" style="stop-color:#6191FF"/>
			<stop  offset="0.5436" style="stop-color:#3574FB"/>
			<stop  offset="1" style="stop-color:#3667ED"/>
		</linearGradient>
		<path class="st55" d="M105.6,130c-0.1-0.1-0.1-0.2-0.2-0.2c-0.1-0.1-0.2-0.2-0.4-0.2c-0.2-0.1-0.4-0.2-0.5-0.3
			c-0.2-0.1-0.5-0.2-0.8-0.3c-0.1,0-0.3-0.1-0.4-0.1c-0.2-0.1-0.5-0.2-0.7-0.2c-1.2-0.4-2.5-0.8-3.6-1.4l0,0
			c0.2,0.1,0.3,0.2,0.5,0.2c1.4,0.7,2.9,1.4,4.3,2.1c0.4,0.2,0.7,0.4,1.1,0.5c0.2,0.1,0.4,0.2,0.6,0.3c0.1,0,0.2,0.1,0.3,0.1
			c0,0,0,0,0,0c0-0.1,0-0.1,0-0.2c0,0,0,0,0,0C105.7,130.2,105.6,130.1,105.6,130z"/>
		
			<linearGradient id="SVGID_56_" gradientUnits="userSpaceOnUse" x1="254.0793" y1="66.1535" x2="226.641" y2="118.0231" gradientTransform="matrix(0.8399 -0.5427 0.5427 0.8399 -147.2573 193.1075)">
			<stop  offset="0.1764" style="stop-color:#6191FF"/>
			<stop  offset="0.5436" style="stop-color:#3574FB"/>
			<stop  offset="1" style="stop-color:#3667ED"/>
		</linearGradient>
		<path class="st56" d="M110.4,147.7c0-0.1,0-0.2,0-0.3c0-0.1,0.1-0.3,0.1-0.4c0,0,0,0,0-0.1c0,0,0,0,0,0c0,0,0,0,0,0
			c0,0,0,0-0.1,0.1c-0.2,0.1-0.4,0.3-0.6,0.4c-0.8,0.6-1.5,1.2-2.2,1.8c-0.7,0.6-1.5,1.2-2.2,1.9c-0.7,0.6-1.5,1.2-2.2,1.9
			c-0.4,0.3-0.7,0.6-1.1,0.9c-0.2,0.2-0.4,0.3-0.6,0.5c-0.2,0.2-0.4,0.3-0.6,0.5c-0.2,0.1-0.3,0.2-0.5,0.4l0.2,0.1l9.5-6.1
			c0-0.1,0-0.3,0-0.4c0-0.2,0-0.4,0.1-0.6c0-0.1,0-0.2,0-0.3C110.4,147.8,110.4,147.8,110.4,147.7z"/>
		
			<linearGradient id="SVGID_57_" gradientUnits="userSpaceOnUse" x1="270.4261" y1="74.8008" x2="242.9879" y2="126.6703" gradientTransform="matrix(0.8399 -0.5427 0.5427 0.8399 -147.2573 193.1075)">
			<stop  offset="0.1764" style="stop-color:#6191FF"/>
			<stop  offset="0.5436" style="stop-color:#3574FB"/>
			<stop  offset="1" style="stop-color:#3667ED"/>
		</linearGradient>
		<path class="st57" d="M125.1,160.7c-0.1-0.2-0.2-0.4-0.3-0.6c0,0,0,0,0,0c0-0.1-0.1-0.2-0.1-0.2c0,0,0-0.1-0.1-0.1c0,0,0,0,0,0
			c0,0,0,0.1,0,0.1c0,0.2,0,0.5,0,0.7c0,0.2,0,0.4,0,0.5c0,0.8,0,1.5,0,2.3c0,0,0,0,0,0c0,0.8,0.1,1.6,0.2,2.5
			c0.1,0.7,0.2,1.3,0.2,2l0.5,0.3l0.7-0.5c0-0.1,0-0.2,0-0.3c0-0.8-0.1-1.6-0.2-2.4c-0.1-0.8-0.2-1.5-0.3-2.3
			c-0.1-0.3-0.1-0.6-0.2-0.9c0-0.1,0-0.2-0.1-0.2C125.3,161.2,125.2,160.9,125.1,160.7z"/>
		
			<linearGradient id="SVGID_58_" gradientUnits="userSpaceOnUse" x1="289.3173" y1="84.7939" x2="261.8791" y2="136.6635" gradientTransform="matrix(0.8399 -0.5427 0.5427 0.8399 -147.2573 193.1075)">
			<stop  offset="0.1764" style="stop-color:#6191FF"/>
			<stop  offset="0.5436" style="stop-color:#3574FB"/>
			<stop  offset="1" style="stop-color:#3667ED"/>
		</linearGradient>
		<path class="st58" d="M147.2,151.6c-0.6-0.2-1.3-0.5-1.9-0.7c-0.2-0.1-0.4-0.2-0.6-0.3c-0.1,0-0.1-0.1-0.2-0.1
			c-0.2-0.1-0.3-0.2-0.5-0.3c-0.2-0.1-0.3-0.1-0.5-0.2c-0.3-0.2-0.6-0.3-0.8-0.5c-0.1,0-0.1-0.1-0.2-0.1c0,0-0.1,0-0.1-0.1
			c0,0-0.1-0.1-0.1-0.1c0,0,0,0-0.1,0c0,0,0,0-0.1,0.1c0,0,0,0-0.1,0.1c0,0.1-0.1,0.1-0.1,0.2c0,0,0,0,0,0c0,0,0,0,0,0
			c0,0,0.1,0,0.1,0.1c0.1,0,0.1,0.1,0.2,0.1c0.2,0.1,0.4,0.2,0.6,0.3c0.3,0.2,0.6,0.3,0.9,0.5c0.7,0.3,1.3,0.7,2,1
			c0.7,0.3,1.3,0.6,2,1c0.3,0.1,0.5,0.3,0.8,0.4l0.6-0.4l0-0.4C148.5,152,147.9,151.8,147.2,151.6z"/>
		
			<linearGradient id="SVGID_59_" gradientUnits="userSpaceOnUse" x1="268.7758" y1="79.9355" x2="246.0576" y2="122.8822" gradientTransform="matrix(0.8399 -0.5427 0.5427 0.8399 -147.2573 193.1075)">
			<stop  offset="0.1764" style="stop-color:#6191FF"/>
			<stop  offset="0.5436" style="stop-color:#3574FB"/>
			<stop  offset="1" style="stop-color:#3667ED"/>
		</linearGradient>
		<polygon class="st59" points="122.9,116.6 103.3,129.2 104.5,152.5 125.3,163.1 144.8,150.5 143.7,127.2 		"/>
		<polygon class="st10" points="122.6,120.1 115.2,124.8 115.6,133.6 123.5,137.6 130.8,132.8 130.4,124.1 		"/>
		<polygon class="st10" points="132.1,128.3 129.1,130.2 129.2,133.9 132.5,135.5 135.5,133.5 135.3,129.9 		"/>
	</g>
	<g>
		
			<linearGradient id="SVGID_60_" gradientUnits="userSpaceOnUse" x1="217.6595" y1="64.3466" x2="182.583" y2="130.6556" gradientTransform="matrix(0.8714 -0.4905 0.4905 0.8714 -144.5346 167.8286)">
			<stop  offset="0.1764" style="stop-color:#6191FF"/>
			<stop  offset="0.5436" style="stop-color:#3574FB"/>
			<stop  offset="1" style="stop-color:#3667ED"/>
		</linearGradient>
		<polygon class="st60" points="78.1,120.6 46.8,138.2 46.4,174.2 77.3,192.6 108.7,174.9 109.1,138.9 		"/>
		
			<linearGradient id="SVGID_61_" gradientUnits="userSpaceOnUse" x1="218.9325" y1="65.02" x2="183.856" y2="131.329" gradientTransform="matrix(0.8714 -0.4905 0.4905 0.8714 -144.5346 167.8286)">
			<stop  offset="0.1764" style="stop-color:#6191FF"/>
			<stop  offset="0.5436" style="stop-color:#3574FB"/>
			<stop  offset="1" style="stop-color:#3667ED"/>
		</linearGradient>
		<path class="st61" d="M78.7,126.1c-0.2-1.8-0.3-3.5-0.4-5.3c0,0,0-0.1,0-0.1l-0.2-0.1l-0.4,0.2c0,1.3,0,2.6,0,3.9
			c0,1.2,0.1,2.4,0.1,3.6c0,0.4,0,0.8,0,1.2c0.2,0.1,0.4,0.1,0.7,0.2c0.2,0,0.4,0.1,0.6,0.1C79,128.5,78.9,127.3,78.7,126.1z"/>
		
			<linearGradient id="SVGID_62_" gradientUnits="userSpaceOnUse" x1="194.3211" y1="52.001" x2="159.2447" y2="118.31" gradientTransform="matrix(0.8714 -0.4905 0.4905 0.8714 -144.5346 167.8286)">
			<stop  offset="0.1764" style="stop-color:#6191FF"/>
			<stop  offset="0.5436" style="stop-color:#3574FB"/>
			<stop  offset="1" style="stop-color:#3667ED"/>
		</linearGradient>
		<path class="st62" d="M54.9,142.6c-0.1-0.1-0.2-0.2-0.3-0.3c-0.1-0.1-0.3-0.2-0.5-0.3c-0.2-0.1-0.4-0.3-0.6-0.4
			c-0.3-0.2-0.6-0.3-0.9-0.5c-0.2-0.1-0.3-0.1-0.5-0.2c-0.3-0.1-0.6-0.3-0.9-0.4c-1.5-0.6-3.1-1.2-4.5-2l0,0
			c0.2,0.1,0.4,0.2,0.6,0.3c1.8,1,3.5,2,5.3,3c0.4,0.3,0.9,0.5,1.3,0.8c0.2,0.1,0.5,0.3,0.7,0.4c0.1,0,0.2,0.2,0.3,0.2
			c0.1,0,0,0,0,0c0-0.1,0-0.2,0-0.3c0,0,0,0,0,0C55,142.8,55,142.7,54.9,142.6z"/>
		
			<linearGradient id="SVGID_63_" gradientUnits="userSpaceOnUse" x1="195.6973" y1="52.729" x2="160.6208" y2="119.0379" gradientTransform="matrix(0.8714 -0.4905 0.4905 0.8714 -144.5346 167.8286)">
			<stop  offset="0.1764" style="stop-color:#6191FF"/>
			<stop  offset="0.5436" style="stop-color:#3574FB"/>
			<stop  offset="1" style="stop-color:#3667ED"/>
		</linearGradient>
		<path class="st63" d="M59.6,165.6c0-0.1,0-0.2,0.1-0.3c0-0.2,0.1-0.4,0.2-0.5c0,0,0-0.1,0.1-0.1c0,0,0,0,0,0c0,0,0,0,0,0
			c0,0-0.1,0-0.1,0.1c-0.3,0.2-0.5,0.3-0.8,0.5c-1,0.7-2,1.4-3,2.1c-1,0.7-2,1.5-3,2.2c-1,0.7-2,1.5-3,2.2c-0.5,0.4-1,0.7-1.5,1.1
			c-0.2,0.2-0.5,0.4-0.7,0.5c-0.2,0.2-0.5,0.4-0.7,0.5c-0.2,0.2-0.4,0.3-0.7,0.4l0.3,0.2l12.6-7.1c0-0.2,0-0.3,0-0.5
			c0-0.3,0.1-0.5,0.1-0.8c0-0.1,0-0.2,0-0.3C59.6,165.7,59.6,165.6,59.6,165.6z"/>
		
			<linearGradient id="SVGID_64_" gradientUnits="userSpaceOnUse" x1="216.5948" y1="63.7834" x2="181.5183" y2="130.0924" gradientTransform="matrix(0.8714 -0.4905 0.4905 0.8714 -144.5346 167.8286)">
			<stop  offset="0.1764" style="stop-color:#6191FF"/>
			<stop  offset="0.5436" style="stop-color:#3574FB"/>
			<stop  offset="1" style="stop-color:#3667ED"/>
		</linearGradient>
		<path class="st64" d="M77.4,183.3c-0.1-0.3-0.2-0.6-0.3-0.8c0,0,0,0,0,0c0-0.1-0.1-0.2-0.1-0.3c0,0,0-0.1-0.1-0.1c0,0,0-0.1,0-0.1
			c0,0,0,0.1,0,0.1c0,0.3-0.1,0.6-0.1,0.9c0,0.2,0,0.4-0.1,0.7c-0.1,1-0.1,1.9-0.2,2.9c0,0,0,0,0,0c0,1.1,0,2.1,0,3.2
			c0,0.8,0.1,1.7,0.2,2.5l0.7,0.4l0.9-0.5c0-0.1,0-0.3,0-0.4c0-1,0-2,0-3c0-1-0.1-2-0.3-2.9c-0.1-0.4-0.1-0.8-0.2-1.1
			c0-0.1,0-0.2-0.1-0.3C77.6,183.9,77.5,183.6,77.4,183.3z"/>
		
			<linearGradient id="SVGID_65_" gradientUnits="userSpaceOnUse" x1="240.7449" y1="76.5585" x2="205.6684" y2="142.8674" gradientTransform="matrix(0.8714 -0.4905 0.4905 0.8714 -144.5346 167.8286)">
			<stop  offset="0.1764" style="stop-color:#6191FF"/>
			<stop  offset="0.5436" style="stop-color:#3574FB"/>
			<stop  offset="1" style="stop-color:#3667ED"/>
		</linearGradient>
		<path class="st65" d="M106.3,173.4c-0.8-0.3-1.6-0.7-2.3-1.1c-0.2-0.1-0.5-0.3-0.7-0.4c-0.1,0-0.2-0.1-0.3-0.1
			c-0.2-0.1-0.4-0.2-0.6-0.4c-0.2-0.1-0.4-0.2-0.6-0.3c-0.3-0.2-0.7-0.4-1-0.7c-0.1-0.1-0.2-0.1-0.2-0.2c0,0-0.1-0.1-0.1-0.1
			c0,0-0.1-0.1-0.1-0.1c0,0-0.1,0-0.1,0c0,0,0,0-0.1,0.1c0,0-0.1,0.1-0.1,0.1c-0.1,0.1-0.1,0.1-0.2,0.2c0,0,0,0-0.1,0c0,0,0,0,0,0
			c0,0,0.1,0.1,0.1,0.1c0.1,0.1,0.2,0.1,0.3,0.2c0.2,0.2,0.5,0.3,0.7,0.5c0.4,0.2,0.7,0.4,1.1,0.7c0.8,0.5,1.6,0.9,2.5,1.4
			c0.8,0.4,1.6,0.9,2.4,1.4c0.3,0.2,0.7,0.4,1,0.6l0.7-0.4l0-0.6C107.9,174,107.1,173.7,106.3,173.4z"/>
		
			<linearGradient id="SVGID_66_" gradientUnits="userSpaceOnUse" x1="214.4851" y1="70.3475" x2="185.4426" y2="125.2498" gradientTransform="matrix(0.8714 -0.4905 0.4905 0.8714 -144.5346 167.8286)">
			<stop  offset="0.1764" style="stop-color:#6191FF"/>
			<stop  offset="0.5436" style="stop-color:#3574FB"/>
			<stop  offset="1" style="stop-color:#3667ED"/>
		</linearGradient>
		<polygon class="st66" points="78.1,126.8 52.1,141.4 51.8,171.2 77.4,186.4 103.4,171.8 103.7,142 		"/>
		<polygon class="st10" points="77.3,131.2 67.5,136.7 67.4,147.9 77.1,153.7 86.9,148.2 87,136.9 		"/>
		<polygon class="st10" points="88.9,142.4 84.8,144.7 84.8,149.3 88.8,151.7 92.8,149.4 92.8,144.8 		"/>
	</g>
	<g>
		
			<linearGradient id="SVGID_67_" gradientUnits="userSpaceOnUse" x1="175.7663" y1="51.9271" x2="148.328" y2="103.7966" gradientTransform="matrix(0.8399 -0.5427 0.5427 0.8399 -147.2573 193.1075)">
			<stop  offset="0.1764" style="stop-color:#6191FF"/>
			<stop  offset="0.5436" style="stop-color:#3574FB"/>
			<stop  offset="1" style="stop-color:#3667ED"/>
		</linearGradient>
		<polygon class="st67" points="29.8,144 6.2,159.2 7.6,187.4 32.6,200.2 56.3,184.9 54.9,156.8 		"/>
		
			<linearGradient id="SVGID_68_" gradientUnits="userSpaceOnUse" x1="176.7621" y1="52.4538" x2="149.3238" y2="104.3234" gradientTransform="matrix(0.8399 -0.5427 0.5427 0.8399 -147.2573 193.1075)">
			<stop  offset="0.1764" style="stop-color:#6191FF"/>
			<stop  offset="0.5436" style="stop-color:#3574FB"/>
			<stop  offset="1" style="stop-color:#3667ED"/>
		</linearGradient>
		<path class="st68" d="M30.6,148.2c-0.2-1.4-0.4-2.7-0.6-4.1c0,0,0,0,0-0.1l-0.1-0.1l-0.3,0.2c0.1,1,0.1,2,0.2,3.1
			c0.1,0.9,0.2,1.9,0.2,2.8c0,0.3,0,0.6,0,0.9c0.2,0,0.4,0.1,0.5,0.1c0.2,0,0.3,0,0.5,0C30.9,150.1,30.7,149.2,30.6,148.2z"/>
		
			<linearGradient id="SVGID_69_" gradientUnits="userSpaceOnUse" x1="157.5101" y1="42.2698" x2="130.0719" y2="94.1394" gradientTransform="matrix(0.8399 -0.5427 0.5427 0.8399 -147.2573 193.1075)">
			<stop  offset="0.1764" style="stop-color:#6191FF"/>
			<stop  offset="0.5436" style="stop-color:#3574FB"/>
			<stop  offset="1" style="stop-color:#3667ED"/>
		</linearGradient>
		<path class="st69" d="M12.8,162.3c-0.1-0.1-0.1-0.2-0.2-0.2c-0.1-0.1-0.2-0.2-0.4-0.2c-0.2-0.1-0.4-0.2-0.5-0.3
			c-0.2-0.1-0.5-0.2-0.8-0.3c-0.1,0-0.3-0.1-0.4-0.1c-0.2-0.1-0.5-0.2-0.7-0.2c-1.2-0.4-2.5-0.8-3.6-1.4l0,0
			c0.2,0.1,0.3,0.2,0.5,0.2c1.4,0.7,2.9,1.4,4.3,2.1c0.4,0.2,0.7,0.4,1.1,0.5c0.2,0.1,0.4,0.2,0.6,0.3c0.1,0,0.2,0.1,0.3,0.1
			c0,0,0,0,0,0c0-0.1,0-0.1,0-0.2c0,0,0,0,0,0C12.8,162.4,12.8,162.3,12.8,162.3z"/>
		
			<linearGradient id="SVGID_70_" gradientUnits="userSpaceOnUse" x1="158.5866" y1="42.8393" x2="131.1483" y2="94.7088" gradientTransform="matrix(0.8399 -0.5427 0.5427 0.8399 -147.2573 193.1075)">
			<stop  offset="0.1764" style="stop-color:#6191FF"/>
			<stop  offset="0.5436" style="stop-color:#3574FB"/>
			<stop  offset="1" style="stop-color:#3667ED"/>
		</linearGradient>
		<path class="st70" d="M17.5,180c0-0.1,0-0.2,0-0.3c0-0.1,0.1-0.3,0.1-0.4c0,0,0,0,0-0.1c0,0,0,0,0,0c0,0,0,0,0,0c0,0,0,0-0.1,0.1
			c-0.2,0.1-0.4,0.3-0.6,0.4c-0.8,0.6-1.5,1.2-2.2,1.8c-0.7,0.6-1.5,1.2-2.2,1.9c-0.7,0.6-1.5,1.2-2.2,1.9c-0.4,0.3-0.7,0.6-1.1,0.9
			c-0.2,0.2-0.4,0.3-0.6,0.5c-0.2,0.2-0.4,0.3-0.6,0.5c-0.2,0.1-0.3,0.2-0.5,0.4l0.2,0.1l9.5-6.1c0-0.1,0-0.3,0-0.4
			c0-0.2,0-0.4,0.1-0.6c0-0.1,0-0.2,0-0.3C17.5,180.1,17.5,180,17.5,180z"/>
		
			<linearGradient id="SVGID_71_" gradientUnits="userSpaceOnUse" x1="174.9335" y1="51.4865" x2="147.4952" y2="103.3561" gradientTransform="matrix(0.8399 -0.5427 0.5427 0.8399 -147.2573 193.1075)">
			<stop  offset="0.1764" style="stop-color:#6191FF"/>
			<stop  offset="0.5436" style="stop-color:#3574FB"/>
			<stop  offset="1" style="stop-color:#3667ED"/>
		</linearGradient>
		<path class="st71" d="M32.3,192.9c-0.1-0.2-0.2-0.4-0.3-0.6c0,0,0,0,0,0c0-0.1-0.1-0.2-0.1-0.2c0,0,0-0.1-0.1-0.1c0,0,0,0,0,0
			c0,0,0,0.1,0,0.1c0,0.2,0,0.5,0,0.7c0,0.2,0,0.4,0,0.5c0,0.8,0,1.5,0,2.3c0,0,0,0,0,0c0,0.8,0.1,1.6,0.2,2.5
			c0.1,0.7,0.2,1.3,0.2,2l0.5,0.3l0.7-0.5c0-0.1,0-0.2,0-0.3c0-0.8-0.1-1.6-0.2-2.4c-0.1-0.8-0.2-1.5-0.3-2.3
			c-0.1-0.3-0.1-0.6-0.2-0.9c0-0.1,0-0.2-0.1-0.2C32.5,193.4,32.4,193.2,32.3,192.9z"/>
		
			<linearGradient id="SVGID_72_" gradientUnits="userSpaceOnUse" x1="193.8246" y1="61.4797" x2="166.3864" y2="113.3492" gradientTransform="matrix(0.8399 -0.5427 0.5427 0.8399 -147.2573 193.1075)">
			<stop  offset="0.1764" style="stop-color:#6191FF"/>
			<stop  offset="0.5436" style="stop-color:#3574FB"/>
			<stop  offset="1" style="stop-color:#3667ED"/>
		</linearGradient>
		<path class="st72" d="M54.4,183.8c-0.6-0.2-1.3-0.5-1.9-0.7c-0.2-0.1-0.4-0.2-0.6-0.3c-0.1,0-0.1-0.1-0.2-0.1
			c-0.2-0.1-0.3-0.2-0.5-0.3c-0.2-0.1-0.3-0.1-0.5-0.2c-0.3-0.2-0.6-0.3-0.8-0.5c-0.1,0-0.1-0.1-0.2-0.1c0,0-0.1,0-0.1-0.1
			c0,0-0.1-0.1-0.1-0.1c0,0,0,0-0.1,0c0,0,0,0-0.1,0.1c0,0,0,0-0.1,0.1c0,0.1-0.1,0.1-0.1,0.2c0,0,0,0,0,0c0,0,0,0,0,0
			c0,0,0.1,0,0.1,0.1c0.1,0,0.1,0.1,0.2,0.1c0.2,0.1,0.4,0.2,0.6,0.3c0.3,0.2,0.6,0.3,0.9,0.5c0.7,0.3,1.3,0.7,2,1
			c0.7,0.3,1.3,0.6,2,1c0.3,0.1,0.5,0.3,0.8,0.4l0.6-0.4l0-0.4C55.6,184.3,55,184.1,54.4,183.8z"/>
		
			<linearGradient id="SVGID_73_" gradientUnits="userSpaceOnUse" x1="173.2831" y1="56.6212" x2="150.5649" y2="99.568" gradientTransform="matrix(0.8399 -0.5427 0.5427 0.8399 -147.2573 193.1075)">
			<stop  offset="0.1764" style="stop-color:#6191FF"/>
			<stop  offset="0.5436" style="stop-color:#3574FB"/>
			<stop  offset="1" style="stop-color:#3667ED"/>
		</linearGradient>
		<polygon class="st73" points="30.1,148.8 10.5,161.4 11.7,184.7 32.4,195.4 52,182.7 50.8,159.4 		"/>
		<polygon class="st10" points="29.7,152.3 22.3,157.1 22.8,165.8 30.6,169.8 38,165.1 37.5,156.3 		"/>
		<polygon class="st10" points="39.2,160.5 36.2,162.5 36.4,166.1 39.6,167.7 42.7,165.8 42.5,162.2 		"/>
	</g>
</g>
</svg>
