<?xml version="1.0" encoding="utf-8"?>
<!-- Generator: Adobe Illustrator 24.1.2, SVG Export Plug-In . SVG Version: 6.00 Build 0)  -->
<svg version="1.1" id="Capa_3" xmlns="http://www.w3.org/2000/svg" xmlns:xlink="http://www.w3.org/1999/xlink" x="0px" y="0px"
	 viewBox="0 0 505.8 232.6" style="enable-background:new 0 0 505.8 232.6;" xml:space="preserve">
<style type="text/css">
	.st0{fill:url(#SVGID_1_);}
	.st1{opacity:0.54;fill:url(#SVGID_2_);}
	.st2{fill:url(#SVGID_3_);}
</style>
<g id="Capa_2">
</g>
<linearGradient id="SVGID_1_" gradientUnits="userSpaceOnUse" x1="269.1421" y1="-174.9089" x2="227.0066" y2="301.9249">
	<stop  offset="0.2652" style="stop-color:#DDDDDD"/>
	<stop  offset="0.63" style="stop-color:#C9C8DB"/>
	<stop  offset="1" style="stop-color:#8A8AA1"/>
</linearGradient>
<path class="st0" d="M505.4,4.2c-11.2-3.8-23.1-2.7-32.7,2.9c-7.7,4.5-12.3,12.9-12.3,21.8V188H45.3V28.9c0-8.9-4.6-17.3-12.3-21.8
	C23.5,1.5,11.5,0.4,0.3,4.2L0,4.4v9.2h0c0.4-0.1,0.8-0.3,1.3-0.4c15.8-4.1,31.2,3.1,31.2,19.5l0.3,162.5v37.3h440.3v-37.3l0.3-162.5
	c0-16.4,15.4-23.6,31.2-19.5c0.4,0.1,0.8,0.2,1.3,0.4h0V4.4L505.4,4.2z"/>
<linearGradient id="SVGID_2_" gradientUnits="userSpaceOnUse" x1="253.2594" y1="320.3903" x2="252.8009" y2="182.8325">
	<stop  offset="0.2652" style="stop-color:#DDDDDD"/>
	<stop  offset="0.63" style="stop-color:#C9C8DB"/>
	<stop  offset="1" style="stop-color:#8A8AA1"/>
</linearGradient>
<rect x="56.8" y="192.7" class="st1" width="392.2" height="35.2"/>
<linearGradient id="SVGID_3_" gradientUnits="userSpaceOnUse" x1="252.8924" y1="206.5446" x2="252.8924" y2="213.7319">
	<stop  offset="0" style="stop-color:#C5D2DB"/>
	<stop  offset="0.1764" style="stop-color:#DFDFDF"/>
	<stop  offset="0.5436" style="stop-color:#C5D2DB"/>
	<stop  offset="1" style="stop-color:#B2C0CD"/>
</linearGradient>
<rect x="56.8" y="208.7" class="st2" width="392.2" height="6"/>
</svg>
